<?xml version="1.0" encoding="utf-8"?>
<!-- Generator: Adobe Illustrator 22.0.1, SVG Export Plug-In . SVG Version: 6.00 Build 0)  -->
<svg version="1.1" id="Capa_1" xmlns="http://www.w3.org/2000/svg" xmlns:xlink="http://www.w3.org/1999/xlink" x="0px" y="0px"
	 viewBox="0 0 54.9 54.9" style="enable-background:new 0 0 54.9 54.9;" xml:space="preserve">
<style type="text/css">
	.st0{fill:#CFD0D2;}
</style>
<g>
	<g>
		<path class="st0" d="M27.4,54.9c-7.3,0-14.2-2.9-19.4-8C-2.7,36.2-2.7,18.7,8,8c5.2-5.2,12.1-8,19.4-8c7.3,0,14.2,2.9,19.4,8
			c10.7,10.7,10.7,28.1,0,38.8C41.7,52.1,34.8,54.9,27.4,54.9L27.4,54.9z M27.5,2.4c-6.7,0-13,2.6-17.7,7.3C0,19.5,0,35.4,9.8,45.2
			c4.7,4.7,11,7.3,17.7,7.3c6.7,0,13-2.6,17.7-7.3c9.8-9.8,9.8-25.6,0-35.4C40.4,5,34.1,2.4,27.5,2.4L27.5,2.4z"/>
	</g>
	<g>
		<path class="st0" d="M27.4,54.9L27.4,54.9c-7.3,0-14.2-2.9-19.4-8c-0.7-0.7-1.3-1.4-1.9-2.1c-0.3-0.4-0.4-0.9-0.1-1.4
			c0.4-0.7,1.1-1.6,2.1-2.1c4-1.9,8.3-3.2,12.7-3.8l-0.2-1.6c-1.1-0.9-1.8-2-1.9-3c-0.1-0.6-0.1-1.2-0.2-1.8c-1-0.2-1.6-0.9-1.7-1.8
			l-0.5-4.7c-0.1-0.9,0.4-1.7,1.2-2.1l-0.2-1.9c-0.2-1.6-0.5-4.9,2.1-7.3c1.8-1.8,4.8-2.8,8.1-2.8c3.3,0,6.2,1.1,8.1,2.9
			c2.6,2.3,2.2,5.6,2.1,7.2l-0.2,2c0.8,0.4,1.3,1.2,1.2,2.1l-0.5,4.7c-0.1,0.9-0.8,1.7-1.7,1.9l-0.2,1.8c-0.1,1-0.8,2.1-1.9,3
			l-0.2,1.6c4.4,0.7,8.7,1.9,12.7,3.8c1.1,0.6,1.8,1.5,2.2,2.2c0.2,0.4,0.2,1-0.1,1.4c-0.6,0.7-1.2,1.4-1.9,2.1
			C41.7,52.1,34.8,54.9,27.4,54.9L27.4,54.9z M8.6,43.9c0.4,0.4,0.7,0.8,1.1,1.2c4.7,4.7,11,7.3,17.7,7.3c6.7,0,13-2.6,17.7-7.3
			c0.4-0.4,0.8-0.8,1.1-1.2c-0.2-0.2-0.4-0.4-0.6-0.5c-4.1-1.9-8.5-3.2-13.1-3.8c-0.3,0-0.6-0.2-0.8-0.5c-0.2-0.3-0.3-0.6-0.2-0.9
			L32,35c0.1-0.3,0.2-0.7,0.5-0.8c0.8-0.5,1.3-1.2,1.3-1.5l0.4-3.1c0.1-0.5,0.4-0.9,0.8-1c0.3-0.1,0.5-0.1,0.8,0l0.4-3.8
			c-0.3,0.1-0.6,0-0.8-0.2c-0.4-0.3-0.5-0.7-0.4-1.2l0.4-3.1c0.1-1.4,0.3-3.7-1.3-5.2c-1.4-1.4-3.8-2.2-6.4-2.2s-5,0.8-6.4,2.2
			c-1.7,1.5-1.5,3.9-1.4,5.2l0.3,3.1c0.1,0.5-0.2,0.9-0.5,1.2c-0.2,0.1-0.5,0.2-0.7,0.2l0.4,3.8c0.3-0.2,0.5-0.2,0.9-0.1
			c0.4,0.1,0.7,0.6,0.7,1.1c0.1,1,0.2,2.1,0.4,3.1c0,0.3,0.5,1,1.3,1.6c0.3,0.2,0.5,0.5,0.6,0.9l0.5,3.3c0,0.3,0,0.7-0.2,0.9
			c-0.2,0.3-0.5,0.4-0.8,0.5c-4.6,0.6-9.1,1.8-13.2,3.8C9,43.6,8.8,43.7,8.6,43.9L8.6,43.9z"/>
	</g>
</g>
</svg>
