<?xml version="1.0" encoding="utf-8"?>
<!-- Generator: Adobe Illustrator 22.0.1, SVG Export Plug-In . SVG Version: 6.00 Build 0)  -->
<svg version="1.1" id="Capa_1" xmlns="http://www.w3.org/2000/svg" xmlns:xlink="http://www.w3.org/1999/xlink" x="0px" y="0px"
	 viewBox="0 0 28.2 28.2" style="enable-background:new 0 0 28.2 28.2;" xml:space="preserve">
<style type="text/css">
	.st0{fill:#9DC44C;}
</style>
<g>
	<g>
		<path class="st0" d="M21.4,8.1h1.9c0.2,0,0.3,0,0.4,0.1c0.1,0.1,0.1,0.2,0.1,0.3c0,0.1,0,0.2-0.1,0.3C23.7,9,23.6,9,23.4,9h-2.7
			c-0.2,0-0.3-0.1-0.4-0.2c-0.1-0.1-0.2-0.2-0.2-0.4c0-0.1,0-0.2,0.1-0.3c0.1-0.1,0.1-0.3,0.2-0.3c0.3-0.3,0.6-0.6,0.9-0.9
			c0.3-0.2,0.4-0.4,0.6-0.5c0.2-0.1,0.4-0.3,0.5-0.4c0.1-0.1,0.2-0.3,0.3-0.4c0.1-0.1,0.1-0.3,0.1-0.4c0-0.2,0-0.3-0.1-0.4
			s-0.2-0.2-0.3-0.3c-0.1-0.1-0.3-0.1-0.4-0.1c-0.3,0-0.6,0.1-0.8,0.4c0,0-0.1,0.1-0.1,0.3c-0.1,0.2-0.1,0.3-0.2,0.4
			s-0.2,0.1-0.3,0.1c-0.1,0-0.2,0-0.3-0.1c-0.1-0.1-0.1-0.2-0.1-0.3c0-0.2,0-0.3,0.1-0.5c0.1-0.2,0.2-0.3,0.3-0.5
			C20.8,4,21,3.8,21.2,3.7c0.2-0.1,0.5-0.1,0.8-0.1c0.4,0,0.7,0.1,1,0.2c0.2,0.1,0.3,0.2,0.4,0.3c0.1,0.1,0.2,0.3,0.3,0.5
			c0.1,0.2,0.1,0.4,0.1,0.6c0,0.3-0.1,0.6-0.2,0.8c-0.2,0.2-0.3,0.4-0.5,0.6c-0.2,0.1-0.4,0.4-0.8,0.7c-0.4,0.3-0.6,0.5-0.8,0.7
			C21.6,8,21.5,8,21.4,8.1z"/>
	</g>
	<g>
		<path class="st0" d="M6.3,8.5V5.2C5.7,5.6,5.3,5.9,5,5.9c-0.1,0-0.2,0-0.3-0.1C4.7,5.7,4.6,5.6,4.6,5.5c0-0.1,0-0.2,0.1-0.3
			C4.8,5.1,5,5.1,5.2,5c0.3-0.1,0.5-0.3,0.7-0.4C6.1,4.4,6.2,4.2,6.4,4c0.1-0.2,0.2-0.3,0.3-0.4c0,0,0.1-0.1,0.2-0.1
			c0.1,0,0.2,0,0.3,0.1C7.2,3.9,7.3,4,7.3,4.2v4.2c0,0.5-0.2,0.7-0.5,0.7c-0.1,0-0.3,0-0.4-0.1C6.3,8.8,6.3,8.7,6.3,8.5z"/>
	</g>
	<g>
		<path class="st0" d="M22.4,24.1v-0.7h-1.8c-0.2,0-0.4-0.1-0.5-0.2c-0.1-0.1-0.2-0.2-0.2-0.4c0,0,0-0.1,0-0.1c0,0,0-0.1,0.1-0.2
			c0-0.1,0.1-0.1,0.1-0.2c0,0,0.1-0.1,0.1-0.2l1.9-2.6c0.1-0.2,0.2-0.3,0.3-0.4c0.1-0.1,0.2-0.1,0.3-0.1c0.4,0,0.6,0.2,0.6,0.6v2.8
			h0.2c0.2,0,0.3,0,0.5,0.1c0.1,0.1,0.2,0.2,0.2,0.3c0,0.1,0,0.2-0.1,0.3c-0.1,0.1-0.2,0.1-0.4,0.1h-0.2v0.7c0,0.2,0,0.3-0.1,0.4
			c-0.1,0.1-0.2,0.1-0.3,0.1c-0.1,0-0.2,0-0.3-0.1C22.4,24.4,22.4,24.3,22.4,24.1z M20.8,22.6h1.6v-2.1L20.8,22.6z"/>
	</g>
	<g>
		<path class="st0" d="M6.2,21.3c0.2,0,0.4-0.1,0.6-0.2C7,21,7,20.8,7,20.6c0-0.2-0.1-0.3-0.2-0.5c-0.1-0.1-0.3-0.2-0.5-0.2
			c-0.1,0-0.3,0-0.4,0.1c-0.1,0-0.2,0.1-0.2,0.2c-0.1,0.1-0.1,0.2-0.2,0.3c0,0.1-0.1,0.2-0.1,0.3c0,0.1-0.1,0.1-0.1,0.1
			c-0.1,0-0.1,0-0.2,0c-0.1,0-0.2,0-0.3-0.1c-0.1-0.1-0.1-0.2-0.1-0.3c0-0.1,0-0.3,0.1-0.4c0.1-0.1,0.2-0.3,0.3-0.4
			c0.1-0.1,0.3-0.2,0.5-0.3c0.2-0.1,0.5-0.1,0.7-0.1c0.2,0,0.5,0,0.6,0.1c0.2,0.1,0.4,0.2,0.5,0.3c0.1,0.1,0.3,0.3,0.3,0.4
			C8,20.2,8,20.3,8,20.5C8,20.8,8,21,7.9,21.1c-0.1,0.2-0.3,0.3-0.5,0.5c0.2,0.1,0.3,0.2,0.5,0.4c0.1,0.1,0.2,0.3,0.3,0.4
			c0.1,0.2,0.1,0.3,0.1,0.5c0,0.2,0,0.4-0.1,0.6c-0.1,0.2-0.2,0.4-0.4,0.6c-0.2,0.2-0.4,0.3-0.6,0.4c-0.2,0.1-0.5,0.1-0.8,0.1
			c-0.3,0-0.6-0.1-0.8-0.2c-0.2-0.1-0.4-0.2-0.6-0.4c-0.2-0.2-0.3-0.3-0.3-0.5c-0.1-0.2-0.1-0.3-0.1-0.4c0-0.1,0-0.3,0.1-0.3
			c0.1-0.1,0.2-0.1,0.3-0.1c0.1,0,0.1,0,0.2,0.1c0.1,0,0.1,0.1,0.1,0.1c0.1,0.3,0.3,0.6,0.4,0.8C5.9,23.9,6.1,24,6.4,24
			c0.2,0,0.3,0,0.4-0.1c0.1-0.1,0.3-0.2,0.3-0.3c0.1-0.1,0.1-0.3,0.1-0.5c0-0.3-0.1-0.5-0.2-0.7c-0.2-0.2-0.4-0.2-0.7-0.2
			c0,0-0.1,0-0.2,0c-0.1,0-0.2,0-0.2,0c-0.1,0-0.2,0-0.3-0.1c-0.1-0.1-0.1-0.2-0.1-0.3c0-0.1,0-0.2,0.1-0.3c0.1-0.1,0.2-0.1,0.4-0.1
			H6.2z"/>
	</g>
	<g>
		<path class="st0" d="M12,12.6H0.6C0.3,12.6,0,12.4,0,12V0.6C0,0.3,0.3,0,0.6,0H12c0.3,0,0.6,0.3,0.6,0.6V12
			C12.6,12.4,12.4,12.6,12,12.6L12,12.6z M1.2,11.4h10.1V1.2H1.2V11.4L1.2,11.4z"/>
	</g>
	<g>
		<path class="st0" d="M27.6,12.6H16.2c-0.3,0-0.6-0.3-0.6-0.6V0.6c0-0.3,0.3-0.6,0.6-0.6h11.4c0.3,0,0.6,0.3,0.6,0.6V12
			C28.2,12.4,28,12.6,27.6,12.6L27.6,12.6z M16.8,11.4H27V1.2H16.8V11.4L16.8,11.4z"/>
	</g>
	<g>
		<path class="st0" d="M12,28.2H0.6C0.3,28.2,0,28,0,27.6V16.2c0-0.3,0.3-0.6,0.6-0.6H12c0.3,0,0.6,0.3,0.6,0.6v11.4
			C12.6,28,12.4,28.2,12,28.2L12,28.2z M1.2,27h10.1V16.8H1.2V27L1.2,27z"/>
	</g>
	<g>
		<path class="st0" d="M27.6,28.2H16.2c-0.3,0-0.6-0.3-0.6-0.6V16.2c0-0.3,0.3-0.6,0.6-0.6h11.4c0.3,0,0.6,0.3,0.6,0.6v11.4
			C28.2,28,28,28.2,27.6,28.2L27.6,28.2z M16.8,27H27V16.8H16.8V27L16.8,27z"/>
	</g>
</g>
</svg>
