<?xml version="1.0" encoding="utf-8"?>
<!-- Generator: Adobe Illustrator 22.0.1, SVG Export Plug-In . SVG Version: 6.00 Build 0)  -->
<svg version="1.1" id="Capa_1" xmlns="http://www.w3.org/2000/svg" xmlns:xlink="http://www.w3.org/1999/xlink" x="0px" y="0px"
	 viewBox="0 0 36.4 36.3" style="enable-background:new 0 0 36.4 36.3;" xml:space="preserve">
<style type="text/css">
	.st0{fill:#9DC44C;}
</style>
<g id="dog_1_">
	<g>
		<g>
			<path class="st0" d="M28.4,36.1H25c-0.3,0-0.6-0.3-0.6-0.6S24.7,35,25,35h2.8c0-0.9-0.8-1.7-1.7-1.7H25c-0.3,0-0.6-0.3-0.6-0.6
				v-7.6c0-0.1,0-0.2,0.1-0.3l1.3-2.3c0.6-1.1,0.9-2.3,0.9-3.5v-0.9c0-0.3,0.3-0.6,0.6-0.6c0.3,0,0.6,0.3,0.6,0.6V19
				c0,1.4-0.4,2.8-1.1,4.1l-1.2,2.2v6.9h0.6c1.6,0,2.8,1.3,2.8,2.8v0.6C29,35.8,28.7,36.1,28.4,36.1z"/>
			<path class="st0" d="M28.4,36.3H25c-0.4,0-0.8-0.4-0.8-0.8s0.4-0.8,0.8-0.8h2.5c-0.1-0.7-0.7-1.2-1.4-1.2H25
				c-0.4,0-0.8-0.4-0.8-0.8v-7.6c0-0.1,0-0.3,0.1-0.4l1.3-2.3c0.6-1,0.9-2.2,0.9-3.4v-0.9c0-0.4,0.4-0.8,0.8-0.8s0.8,0.4,0.8,0.8V19
				c0,1.5-0.4,2.9-1.1,4.2l-1.2,2.1v6.6h0.3c1.7,0,3.1,1.4,3.1,3.1v0.6C29.2,36,28.8,36.3,28.4,36.3z M25,35.2
				c-0.2,0-0.3,0.1-0.3,0.3c0,0.2,0.1,0.3,0.3,0.3h3.4c0.2,0,0.3-0.1,0.3-0.3V35c0-1.4-1.2-2.6-2.6-2.6h-0.8v-7.3l1.2-2.2
				c0.7-1.2,1-2.6,1-4v-0.9c0-0.2-0.1-0.3-0.3-0.3S27,17.9,27,18.1V19c0,1.3-0.3,2.5-0.9,3.7l-1.3,2.3c0,0,0,0.1,0,0.2v7.6
				c0,0.2,0.1,0.3,0.3,0.3h1.1c1.1,0,1.9,0.9,1.9,1.9v0.3H25z"/>
		</g>
	</g>
	<g>
		<g>
			<path class="st0" d="M6.4,31.6c-0.3,0-0.6-0.3-0.6-0.6v-1.7c0-7.4,3.4-10.1,6.1-12.3c0.3-0.2,0.6-0.5,0.8-0.7
				c3.2-2.7,4.7-5.5,5.3-9.6c0.5-3.8,3.4-6.5,7.1-6.5c1.1,0,2.4,0.2,3.5,0.3c0.8,0.1,1.5,0.7,1.7,1.6c0.3,1.3,0.6,1.7,0.7,1.8
				c0.4,0.4,2.2,1,4.4,1.4c0.2,0,0.4,0.2,0.5,0.4c0.1,0.2,0.2,0.4,0.1,0.6l-1,3.5c-0.3,1.2-1.5,2.1-2.7,2.1h-4.1
				c-0.3,0-0.6-0.3-0.6-0.6c0-0.3,0.3-0.6,0.6-0.6h4.1c0.8,0,1.4-0.5,1.6-1.2L35,6.4c-1.6-0.3-4-0.9-4.7-1.7
				c-0.1-0.1-0.5-0.6-0.9-2.3C29.3,2,29,1.8,28.6,1.7c-1.1-0.2-2.4-0.3-3.4-0.3c-3,0-5.5,2.3-5.9,5.5c-0.6,4.5-2.3,7.5-5.7,10.4
				c-0.3,0.2-0.6,0.5-0.9,0.7C10,20.1,7,22.5,7,29.3V31C7,31.3,6.8,31.6,6.4,31.6z"/>
			<path class="st0" d="M6.4,31.8c-0.4,0-0.8-0.4-0.8-0.8v-1.7c0-7.5,3.4-10.2,6.2-12.4l0.1-0.1c0.2-0.2,0.5-0.4,0.7-0.6
				c3.1-2.6,4.6-5.4,5.2-9.5C18.5,2.8,21.5,0,25.2,0c1.1,0,2.4,0.2,3.6,0.3c0.9,0.1,1.7,0.8,1.9,1.7c0.3,1.3,0.6,1.6,0.6,1.7
				c0.3,0.3,1.9,0.9,4.3,1.3c0.3,0.1,0.5,0.2,0.7,0.5c0.2,0.2,0.2,0.6,0.1,0.8l-1,3.5c-0.4,1.3-1.6,2.2-3,2.2h-4.1
				c-0.4,0-0.8-0.4-0.8-0.8s0.4-0.8,0.8-0.8h4.1c0.6,0,1.2-0.4,1.4-1.1l0.8-2.9c-1.8-0.4-3.9-0.9-4.6-1.7c-0.1-0.2-0.6-0.6-1-2.4
				C29,2.2,28.8,2,28.5,2c-1.1-0.2-2.4-0.3-3.3-0.3c-2.9,0-5.2,2.2-5.7,5.3c-0.7,4.6-2.3,7.6-5.8,10.5c-0.3,0.2-0.6,0.5-0.9,0.7
				c-2.6,2.1-5.6,4.5-5.6,11.2V31C7.3,31.5,6.9,31.8,6.4,31.8z M25.2,0.5c-3.5,0-6.3,2.6-6.8,6.3c-0.6,4.3-2.2,7.1-5.4,9.8
				c-0.2,0.2-0.5,0.4-0.7,0.6l-0.1,0.1c-2.7,2.1-6,4.8-6,12.1V31c0,0.2,0.1,0.3,0.3,0.3s0.3-0.1,0.3-0.3v-1.7
				c0-6.9,3.1-9.4,5.8-11.6c0.3-0.2,0.6-0.5,0.9-0.7c3.3-2.8,5-5.8,5.6-10.2c0.5-3.4,3-5.7,6.2-5.7c1,0,2.3,0.2,3.4,0.3
				c0.5,0.1,0.9,0.4,1,0.9c0.3,1.1,0.6,1.8,0.9,2.2C31,5.1,32.6,5.7,35,6.1l0.3,0.1l-0.9,3.4c-0.2,0.8-1,1.4-1.9,1.4h-4.1
				c-0.2,0-0.3,0.1-0.3,0.3c0,0.2,0.1,0.3,0.3,0.3h4.1c1.1,0,2.2-0.8,2.5-1.9l1-3.5c0-0.1,0-0.3-0.1-0.4c-0.1-0.1-0.2-0.2-0.4-0.2
				c-1.8-0.3-4.1-0.9-4.6-1.5c-0.1-0.2-0.4-0.6-0.7-1.9c-0.2-0.7-0.8-1.3-1.5-1.4C27.6,0.7,26.3,0.5,25.2,0.5z"/>
		</g>
	</g>
	<g>
		<g>
			<path class="st0" d="M25,16.4c-2.2,0-3.9-1.8-3.9-3.9V6.8c0-0.3,0.3-0.6,0.6-0.6c0.3,0,0.6,0.3,0.6,0.6v5.6
				c0,1.6,1.3,2.8,2.8,2.8c1.9,0,2.8-1.5,2.8-2.8c0-1-0.5-1.5-1.2-2.3c-1-1.1-2.2-2.5-2.2-5.6C24.5,4.2,24.7,4,25,4
				c0.3,0,0.6,0.3,0.6,0.6c0,2.7,1,3.8,1.9,4.8c0.7,0.8,1.5,1.6,1.5,3.1C29,14.4,27.6,16.4,25,16.4z"/>
			<path class="st0" d="M25,16.6c-2.3,0-4.2-1.9-4.2-4.2V6.8c0-0.4,0.4-0.8,0.8-0.8s0.8,0.4,0.8,0.8v5.6c0,1.4,1.2,2.6,2.6,2.6
				c1.8,0,2.6-1.3,2.6-2.6c0-0.9-0.4-1.4-1.1-2.1c-1-1.1-2.3-2.5-2.3-5.7c0-0.4,0.4-0.8,0.8-0.8s0.8,0.4,0.8,0.8
				c0,2.6,0.9,3.6,1.8,4.7c0.7,0.8,1.5,1.7,1.5,3.2C29.2,14.5,27.8,16.6,25,16.6z M21.6,6.5c-0.2,0-0.3,0.1-0.3,0.3v5.6
				c0,2,1.7,3.7,3.7,3.7c2.4,0,3.7-1.9,3.7-3.7c0-1.3-0.7-2.1-1.4-2.9c-1-1.1-2-2.2-2-5c0-0.2-0.1-0.3-0.3-0.3s-0.3,0.1-0.3,0.3
				c0,3,1.2,4.3,2.1,5.4c0.7,0.8,1.2,1.4,1.2,2.5c0,1.5-1,3.1-3.1,3.1c-1.7,0-3.1-1.4-3.1-3.1V6.8C22,6.6,21.8,6.5,21.6,6.5z"/>
		</g>
	</g>
	<g>
		<g>
			<path class="st0" d="M22.2,36.1H9.3c-1.5,0-4.4-0.7-6.1-3.2c-1.6-2.4-1.4-5.8,0.5-10c1.1-2.4,0.9-4.6-0.6-6.5
				c-1.1-1.5-2.5-2.3-2.6-2.3c-0.2-0.1-0.3-0.3-0.3-0.5c0-0.2,0.2-0.4,0.4-0.5c0.2-0.1,5.6-1.8,7.4,2c0.1,0.3,0,0.6-0.3,0.8
				c-0.3,0.1-0.6,0-0.8-0.3c-1-2-3.4-1.9-4.9-1.7c1.7,1.4,4.7,4.7,2.5,9.5c-1.7,3.8-1.9,6.8-0.6,8.9C5.5,34.4,8.1,35,9.3,35h12.4
				c0-0.9-0.8-1.7-1.7-1.7h-3.4c-0.2,0-0.4-0.1-0.5-0.3c-0.1-0.2-0.1-0.4,0-0.6l2-3.8c0.6-1.1,0.5-2.3-0.1-3.3
				c-0.6-1-1.7-1.6-2.9-1.6h-1.9c-0.3,0-0.6-0.3-0.6-0.6s0.3-0.6,0.6-0.6h1.9c1.6,0,3,0.8,3.9,2.2c0.8,1.4,0.9,3,0.1,4.4l-1.6,3h2.4
				c1.6,0,2.8,1.3,2.8,2.8v0.6C22.8,35.8,22.5,36.1,22.2,36.1z"/>
			<path class="st0" d="M22.2,36.3H9.3c-1.5,0-4.6-0.7-6.3-3.3c-1.6-2.5-1.5-6,0.5-10.2c1-2.3,0.9-4.4-0.5-6.3
				c-1.1-1.5-2.5-2.2-2.5-2.2C0.1,14.1,0,13.8,0,13.5c0-0.3,0.2-0.6,0.6-0.7c0.2-0.1,5.7-1.9,7.7,2.1c0.2,0.4,0,0.9-0.4,1.1
				c-0.2,0.1-0.4,0.1-0.6,0c-0.2-0.1-0.4-0.2-0.5-0.4C6,14,4.1,13.9,2.8,14c1.7,1.5,4.3,4.8,2.2,9.5c-1.7,3.7-1.9,6.6-0.6,8.7
				c1.3,2,3.8,2.6,4.9,2.6h12.1c-0.1-0.7-0.7-1.2-1.4-1.2h-3.4c-0.3,0-0.5-0.2-0.7-0.4c-0.1-0.2-0.2-0.5,0-0.8l2-3.8
				c0.5-1,0.5-2.1-0.1-3.1c-0.6-0.9-1.6-1.5-2.7-1.5h-1.9c-0.4,0-0.8-0.4-0.8-0.8s0.4-0.8,0.8-0.8h1.9c1.7,0,3.2,0.9,4.1,2.3
				c0.9,1.4,0.9,3.2,0.1,4.7l-1.4,2.6h2c1.7,0,3.1,1.4,3.1,3.1v0.6C23,36,22.6,36.3,22.2,36.3z M3.6,12.8c-1.5,0-2.8,0.4-2.9,0.5
				c-0.1,0-0.2,0.1-0.2,0.3c0,0.1,0.1,0.2,0.2,0.3c0,0,1.5,0.8,2.6,2.4c1.5,2,1.7,4.3,0.6,6.8c-1.9,4.1-2,7.4-0.5,9.7
				c1.6,2.4,4.4,3.1,5.9,3.1h12.9c0.2,0,0.3-0.1,0.3-0.3V35c0-1.4-1.2-2.6-2.6-2.6h-2.9l1.8-3.3c0.7-1.3,0.7-2.9-0.1-4.2
				c-0.8-1.3-2.1-2.1-3.6-2.1h-1.9c-0.2,0-0.3,0.1-0.3,0.3s0.1,0.3,0.3,0.3h1.9c1.3,0,2.4,0.7,3.1,1.8c0.7,1.1,0.7,2.4,0.1,3.6
				l-2,3.8c-0.1,0.1,0,0.2,0,0.3c0.1,0.1,0.2,0.2,0.3,0.2h3.4c1.1,0,1.9,0.9,1.9,1.9v0.3H9.3c-1.2,0-3.9-0.6-5.3-2.8
				c-1.4-2.2-1.2-5.3,0.5-9.1C6.6,18.6,3.8,15.5,2,14l-0.4-0.4l0.6-0.1c1.5-0.2,4.1-0.3,5.2,1.8c0,0.1,0.1,0.1,0.2,0.2
				c0.1,0,0.2,0,0.2,0c0.2-0.1,0.2-0.3,0.1-0.4C6.9,13.3,5.1,12.8,3.6,12.8z"/>
		</g>
	</g>
</g>
</svg>
