<?xml version="1.0" encoding="utf-8"?>
<!-- Generator: Adobe Illustrator 22.0.1, SVG Export Plug-In . SVG Version: 6.00 Build 0)  -->
<svg version="1.1" id="Capa_1" xmlns="http://www.w3.org/2000/svg" xmlns:xlink="http://www.w3.org/1999/xlink" x="0px" y="0px"
	 viewBox="0 0 22.5 22.5" style="enable-background:new 0 0 22.5 22.5;" xml:space="preserve">
<style type="text/css">
	.st0{fill:#EEEFF3;}
</style>
<g>
	<g>
		<g>
			<path class="st0" d="M9.3,6.4H3.9c-0.3,0-0.5-0.2-0.5-0.5c0-0.3,0.2-0.5,0.5-0.5h4.9V0.5C8.8,0.2,9,0,9.3,0
				c0.3,0,0.5,0.2,0.5,0.5v5.4C9.8,6.1,9.6,6.4,9.3,6.4L9.3,6.4z"/>
		</g>
		<g>
			<path class="st0" d="M18.5,10.9H3.9c-0.3,0-0.5-0.2-0.5-0.5V5.9c0-0.1,0.1-0.3,0.1-0.4l5.4-5.4C9,0.1,9.2,0,9.3,0h9.2
				C18.8,0,19,0.2,19,0.5v9.9C19,10.6,18.8,10.9,18.5,10.9L18.5,10.9z M4.4,9.9H18V1H9.5L4.4,6.1V9.9L4.4,9.9z"/>
		</g>
	</g>
	<g>
		<g>
			<path class="st0" d="M18.5,22.5H3.9c-0.3,0-0.5-0.2-0.5-0.5V17c0-0.3,0.2-0.5,0.5-0.5h14.6c0.3,0,0.5,0.2,0.5,0.5V22
				C19,22.2,18.8,22.5,18.5,22.5L18.5,22.5z M4.4,21.5H18v-3.9H4.4V21.5L4.4,21.5z"/>
		</g>
	</g>
	<g>
		<polygon class="st0" points="22.5,20.2 19.8,20.2 19.8,19.2 21.5,19.2 21.5,11 1,11 1,19.2 2.6,19.2 2.6,20.2 0,20.2 0,10 
			22.5,10 22.5,20.2 		"/>
	</g>
	<g>
		<path class="st0" d="M17.1,13c-0.5,0-1,0.4-1,1c0,0.5,0.4,1,1,1c0.5,0,1-0.4,1-1C18,13.5,17.6,13,17.1,13L17.1,13z"/>
	</g>
	<g>
		<path class="st0" d="M14.2,14.5H8.1c-0.3,0-0.5-0.2-0.5-0.5c0-0.3,0.2-0.5,0.5-0.5h6.1c0.3,0,0.5,0.2,0.5,0.5
			C14.7,14.3,14.5,14.5,14.2,14.5L14.2,14.5z"/>
	</g>
</g>
</svg>
