<?xml version="1.0" encoding="utf-8"?>
<!-- Generator: Adobe Illustrator 22.0.1, SVG Export Plug-In . SVG Version: 6.00 Build 0)  -->
<svg version="1.1" id="Capa_1" xmlns="http://www.w3.org/2000/svg" xmlns:xlink="http://www.w3.org/1999/xlink" x="0px" y="0px"
	 viewBox="0 0 25.4 21.7" style="enable-background:new 0 0 25.4 21.7;" xml:space="preserve">
<style type="text/css">
	.st0{fill:#FFFFFF;}
	.st1{fill:#FDFEFF;}
</style>
<g>
	<g>
		<g>
			<path class="st0" d="M24.2,8.8H1.2C1,8.8,0.8,8.7,0.7,8.5c-0.1-0.2,0-0.4,0.2-0.6l11.5-7.8C12.6,0,12.8,0,13,0.1l11.5,7.8
				c0.2,0.1,0.3,0.4,0.2,0.6C24.6,8.7,24.4,8.8,24.2,8.8L24.2,8.8z M2.8,7.8h19.7l-9.9-6.7L2.8,7.8L2.8,7.8z"/>
		</g>
		<g>
			<g>
				<path class="st0" d="M4.1,18.7c-0.3,0-0.5-0.2-0.5-0.5V8.7c0-0.3,0.2-0.5,0.5-0.5s0.5,0.2,0.5,0.5v9.5
					C4.6,18.5,4.4,18.7,4.1,18.7L4.1,18.7z"/>
			</g>
			<g>
				<path class="st0" d="M21.3,18.7c-0.3,0-0.5-0.2-0.5-0.5V8.7c0-0.3,0.2-0.5,0.5-0.5c0.3,0,0.5,0.2,0.5,0.5v9.5
					C21.8,18.5,21.5,18.7,21.3,18.7L21.3,18.7z"/>
			</g>
			<g>
				<path class="st0" d="M8.4,18.7c-0.3,0-0.5-0.2-0.5-0.5V8.7c0-0.3,0.2-0.5,0.5-0.5s0.5,0.2,0.5,0.5v9.5
					C8.9,18.5,8.7,18.7,8.4,18.7L8.4,18.7z"/>
			</g>
			<g>
				<path class="st0" d="M12.7,18.7c-0.3,0-0.5-0.2-0.5-0.5V8.7c0-0.3,0.2-0.5,0.5-0.5s0.5,0.2,0.5,0.5v9.5
					C13.2,18.5,13,18.7,12.7,18.7L12.7,18.7z"/>
			</g>
			<g>
				<path class="st0" d="M17,18.7c-0.3,0-0.5-0.2-0.5-0.5V8.7c0-0.3,0.2-0.5,0.5-0.5s0.5,0.2,0.5,0.5v9.5
					C17.5,18.5,17.3,18.7,17,18.7L17,18.7z"/>
			</g>
		</g>
		<g>
			<path class="st0" d="M22.9,18.9H2.5c-0.3,0-0.5-0.2-0.5-0.5c0-0.3,0.2-0.5,0.5-0.5h20.4c0.3,0,0.5,0.2,0.5,0.5
				C23.4,18.6,23.1,18.9,22.9,18.9L22.9,18.9z"/>
		</g>
		<g>
			<path class="st0" d="M24.9,21.7H0.5c-0.3,0-0.5-0.2-0.5-0.5c0-0.3,0.2-0.5,0.5-0.5h24.4c0.3,0,0.5,0.2,0.5,0.5
				C25.4,21.5,25.1,21.7,24.9,21.7L24.9,21.7z"/>
		</g>
	</g>
</g>
<g>
	<path class="st0" d="M14.9-108.7h-2.8c-0.7,0-1.3-0.6-1.3-1.3v-1.8c0-0.2-0.2-0.4-0.4-0.5l-0.9-0.4c-0.3-0.1-0.5,0-0.6,0.1
		l-1.3,1.3c-0.5,0.5-1.4,0.5-1.9,0l-2-2c-0.2-0.2-0.4-0.6-0.4-0.9c0-0.4,0.1-0.7,0.4-0.9l1.3-1.3c0.1-0.1,0.2-0.4,0.1-0.6l-0.4-0.9
		c-0.1-0.2-0.3-0.4-0.5-0.4H2.4c-0.7,0-1.3-0.6-1.3-1.3v-2.8c0-0.7,0.6-1.3,1.3-1.3h1.8c0.2,0,0.4-0.2,0.5-0.4l0.4-0.9
		c0.1-0.2,0.1-0.5-0.1-0.6L3.7-127c-0.2-0.2-0.4-0.6-0.4-0.9c0-0.4,0.1-0.7,0.4-0.9l2-2c0.5-0.5,1.4-0.5,1.9,0l1.3,1.3
		c0.1,0.1,0.4,0.2,0.6,0.1l0.9-0.4c0.2-0.1,0.4-0.3,0.4-0.5v-1.8c0-0.7,0.6-1.3,1.3-1.3h2.8c0.7,0,1.3,0.6,1.3,1.3v1.8
		c0,0.2,0.2,0.4,0.4,0.5l0.9,0.4c0.3,0.1,0.5,0,0.6-0.1l1.3-1.3c0.5-0.5,1.4-0.5,1.9,0l2,2c0.2,0.2,0.4,0.6,0.4,0.9
		c0,0.4-0.1,0.7-0.4,0.9l-1.3,1.3c-0.1,0.1-0.2,0.4-0.1,0.6l0.4,0.9c0.1,0.2,0.3,0.4,0.5,0.4h1.8c0.7,0,1.3,0.6,1.3,1.3v2.8
		c0,0.7-0.6,1.3-1.3,1.3h-1.8c-0.2,0-0.4,0.2-0.5,0.4l-0.4,0.9c-0.1,0.2,0,0.5,0.1,0.6l1.3,1.3c0.2,0.2,0.4,0.6,0.4,0.9
		c0,0.4-0.1,0.7-0.4,0.9l-2,2c-0.5,0.5-1.4,0.5-1.9,0l-1.3-1.3c-0.1-0.1-0.4-0.2-0.6-0.1l-0.9,0.4c-0.2,0.1-0.4,0.3-0.4,0.5v1.8
		C16.2-109.3,15.7-108.7,14.9-108.7L14.9-108.7z M9.3-113.9c0.3,0,0.5,0.1,0.7,0.2l0.8,0.3c0.6,0.2,1.1,0.9,1.1,1.5v1.8
		c0,0.1,0.1,0.2,0.2,0.2h2.8c0.1,0,0.2-0.1,0.2-0.2v-1.8c0-0.7,0.5-1.3,1.1-1.5l0.8-0.3c0.5-0.2,1.4-0.1,1.8,0.3l1.3,1.3
		c0.1,0.1,0.2,0.1,0.3,0l2-2c0.1-0.1,0.1-0.1,0.1-0.2c0,0,0-0.1-0.1-0.2l-1.3-1.3c-0.5-0.5-0.6-1.3-0.3-1.9l0.3-0.8
		c0.2-0.6,0.9-1.1,1.5-1.1h1.8c0.1,0,0.2-0.1,0.2-0.2v-2.8c0-0.1-0.1-0.2-0.2-0.2h-1.8c-0.7,0-1.3-0.5-1.5-1.1l-0.3-0.8
		c-0.3-0.6-0.2-1.4,0.3-1.8l1.3-1.3c0.1-0.1,0.1-0.1,0.1-0.2c0,0,0-0.1-0.1-0.2l-2-2c-0.1-0.1-0.2-0.1-0.3,0l-1.3,1.3
		c-0.5,0.5-1.3,0.6-1.9,0.3l-0.8-0.3c-0.6-0.2-1.1-0.9-1.1-1.5v-1.8c0-0.1-0.1-0.2-0.2-0.2h-2.8c-0.1,0-0.2,0.1-0.2,0.2v1.8
		c0,0.7-0.5,1.3-1.1,1.5l-0.8,0.3c-0.5,0.2-1.4,0.1-1.8-0.3l-1.3-1.3c-0.1-0.1-0.2-0.1-0.3,0l-2,2c-0.1,0.1-0.1,0.1-0.1,0.2
		c0,0,0,0.1,0.1,0.2l1.3,1.3c0.5,0.5,0.6,1.3,0.3,1.9l-0.3,0.8c-0.2,0.6-0.9,1.1-1.5,1.1H2.4c-0.1,0-0.2,0.1-0.2,0.2v2.8
		c0,0.1,0.1,0.2,0.2,0.2h1.8c0.7,0,1.3,0.5,1.5,1.1l0.3,0.8c0.3,0.6,0.2,1.4-0.3,1.8l-1.3,1.3c-0.1,0.1-0.1,0.1-0.1,0.2
		c0,0,0,0.1,0.1,0.2l2,2c0.1,0.1,0.2,0.1,0.3,0l1.3-1.3C8.4-113.7,8.9-113.9,9.3-113.9L9.3-113.9z M13.5-116.8
		c-2.4,0-4.3-1.9-4.3-4.3c0-2.4,1.9-4.3,4.3-4.3c2.4,0,4.3,1.9,4.3,4.3C17.8-118.7,15.9-116.8,13.5-116.8L13.5-116.8z M13.5-124.3
		c-1.8,0-3.2,1.4-3.2,3.2c0,1.8,1.4,3.2,3.2,3.2c1.8,0,3.2-1.4,3.2-3.2C16.7-122.8,15.3-124.3,13.5-124.3L13.5-124.3z"/>
</g>
<g>
	<g>
		<g>
			<g>
				<g>
					<path class="st1" d="M10.4-34c-0.3,0-0.5-0.2-0.5-0.5l-0.2-1.7l-1.7,0c-0.3,0-0.5-0.2-0.5-0.5c0-0.3,0.2-0.5,0.5-0.5l2.2,0
						c0.3,0,0.5,0.2,0.5,0.5l0.2,2.1c0,0.1,0,0.3-0.1,0.4C10.8-34.1,10.6-34,10.4-34L10.4-34z M10.4-34.6v0.3V-34.6L10.4-34.6
						L10.4-34.6z M8-36.7L8-36.7C8-36.7,8-36.7,8-36.7z"/>
				</g>
			</g>
			<g>
				<g>
					<path class="st1" d="M13.5-27.1c-1.5,0-2.9-0.6-4-1.7c-1.1-1.1-1.7-2.5-1.7-4c0-1.5,0.6-2.9,1.7-4C9.6-36.9,9.7-37,9.8-37
						c0,0,0,0,0,0c0.1,0,0.3,0.1,0.4,0.2c0.2,0.2,0.2,0.6,0,0.8c-0.9,0.9-1.3,2-1.3,3.2c0,1.2,0.5,2.4,1.3,3.2
						c1.1,1.1,2.7,1.6,4.2,1.2c0.3-0.1,0.6,0.1,0.7,0.4c0,0.1,0,0.3-0.1,0.4c-0.1,0.1-0.2,0.2-0.3,0.2
						C14.3-27.2,13.9-27.1,13.5-27.1z"/>
				</g>
			</g>
			<g>
				<g>
					<path class="st1" d="M17.1-28.7c-0.1,0-0.3-0.1-0.4-0.2c-0.1-0.1-0.2-0.2-0.2-0.4c0-0.1,0.1-0.3,0.2-0.4c1.8-1.8,1.8-4.7,0-6.5
						c-1.1-1.1-2.7-1.6-4.2-1.2c-0.1,0-0.3,0-0.4-0.1c-0.1-0.1-0.2-0.2-0.2-0.3c0-0.1,0-0.3,0.1-0.4c0.1-0.1,0.2-0.2,0.3-0.2
						c1.9-0.4,3.9,0.1,5.2,1.5c2.2,2.2,2.2,5.8,0,8C17.4-28.8,17.3-28.7,17.1-28.7z"/>
				</g>
			</g>
			<g>
				<g>
					<path class="st1" d="M19-28.4l-2.2,0c-0.3,0-0.5-0.2-0.5-0.5L16-31c0-0.1,0-0.3,0.1-0.4c0.1-0.1,0.2-0.2,0.4-0.2
						c0.1,0,0.3,0,0.4,0.1s0.2,0.2,0.2,0.4l0.2,1.7l1.7,0c0.3,0,0.5,0.2,0.5,0.5S19.3-28.4,19-28.4z M19-29C19-29,19-29,19-29L19-29
						z"/>
				</g>
			</g>
		</g>
	</g>
	<g>
		<g>
			<g>
				<path class="st1" d="M22.3-22.9H4.7c-1,0-1.8-0.8-1.8-1.8v-18c0-1,0.8-1.8,1.8-1.8h17.5c1,0,1.8,0.8,1.8,1.8v18
					C24.1-23.7,23.3-22.9,22.3-22.9L22.3-22.9z M4.7-43.3c-0.3,0-0.6,0.3-0.6,0.6v18c0,0.3,0.3,0.6,0.6,0.6h17.5
					c0.3,0,0.6-0.3,0.6-0.6v-18c0-0.3-0.3-0.6-0.6-0.6H4.7L4.7-43.3z"/>
			</g>
		</g>
		<g>
			<g>
				<path class="st1" d="M17.8-45.7c-0.3,0-0.6-0.3-0.6-0.6v-2.5c0-0.3-0.3-0.6-0.6-0.6h-6.3c-0.3,0-0.6,0.3-0.6,0.6v2.5
					c0,0.3-0.3,0.6-0.6,0.6c-0.3,0-0.6-0.3-0.6-0.6v-2.5c0-1,0.8-1.8,1.8-1.8h6.3c1,0,1.8,0.8,1.8,1.8v2.5
					C18.4-46,18.2-45.7,17.8-45.7L17.8-45.7z"/>
			</g>
		</g>
	</g>
</g>
<g>
	<g>
		<path class="st0" d="M13.8,138.9c-0.3,0-0.6-0.2-0.6-0.6v-8c0-0.3,0.2-0.6,0.6-0.6c0.3,0,0.6,0.2,0.6,0.6v8
			C14.3,138.6,14.1,138.9,13.8,138.9L13.8,138.9z"/>
	</g>
	<g>
		<path class="st0" d="M13.8,154.6c-6.1,0-11-4.9-11-11c0-4.7,3-8.9,7.4-10.4c0.3-0.1,0.6,0.1,0.7,0.3c0.1,0.3-0.1,0.6-0.3,0.7
			c-4,1.4-6.7,5.1-6.7,9.4c0,5.5,4.4,9.9,9.9,9.9c5.5,0,9.9-4.4,9.9-9.9c0-4.2-2.7-8-6.7-9.4c-0.3-0.1-0.4-0.4-0.3-0.7
			c0.1-0.3,0.4-0.4,0.7-0.3c4.4,1.5,7.4,5.7,7.4,10.4C24.8,149.7,19.8,154.6,13.8,154.6L13.8,154.6z"/>
	</g>
</g>
</svg>
