<?xml version="1.0" encoding="utf-8"?>
<!-- Generator: Adobe Illustrator 22.0.1, SVG Export Plug-In . SVG Version: 6.00 Build 0)  -->
<svg version="1.1" id="Capa_1" xmlns="http://www.w3.org/2000/svg" xmlns:xlink="http://www.w3.org/1999/xlink" x="0px" y="0px"
	 viewBox="0 0 22 20.6" style="enable-background:new 0 0 22 20.6;" xml:space="preserve">
<style type="text/css">
	.st0{fill:#FFFFFF;}
</style>
<g>
	<g>
		<g>
			<path class="st0" d="M11,9.8c-0.1,0-0.2,0-0.3-0.1L5.3,5.8C5.1,5.6,5.1,5.3,5.2,5.1c0.2-0.2,0.5-0.3,0.7-0.1L11,8.6l5.1-3.7
				c0.2-0.2,0.5-0.1,0.7,0.1c0.2,0.2,0.1,0.5-0.1,0.7l-5.4,3.9C11.2,9.7,11.1,9.8,11,9.8L11,9.8z"/>
		</g>
		<g>
			<path class="st0" d="M11,9.8c-0.3,0-0.5-0.2-0.5-0.5V0.5C10.5,0.2,10.7,0,11,0c0.3,0,0.5,0.2,0.5,0.5v8.8
				C11.5,9.5,11.3,9.8,11,9.8L11,9.8z"/>
		</g>
	</g>
	<g>
		<path class="st0" d="M21.5,20.6h-21c-0.3,0-0.5-0.2-0.5-0.5V13c0-0.3,0.2-0.5,0.5-0.5H7c0.3,0,0.5,0.2,0.5,0.5v1.4
			c0,0.3,0.2,0.5,0.5,0.5h6c0.3,0,0.5-0.2,0.5-0.5V13c0-0.3,0.2-0.5,0.5-0.5h6.5c0.3,0,0.5,0.2,0.5,0.5v7.1
			C22,20.4,21.8,20.6,21.5,20.6L21.5,20.6z M1,19.6h20v-6.1h-5.5v0.9c0,0.8-0.7,1.5-1.5,1.5H8c-0.8,0-1.5-0.7-1.5-1.5v-0.9H1V19.6
			L1,19.6z"/>
	</g>
	<g>
		<g>
			<g>
				<path class="st0" d="M0.5,13.5c-0.1,0-0.3,0-0.3-0.1c-0.2-0.2-0.2-0.5,0-0.7l4-4.2c0.2-0.2,0.5-0.2,0.7,0c0.2,0.2,0.2,0.5,0,0.7
					l-4,4.2C0.8,13.5,0.6,13.5,0.5,13.5L0.5,13.5z"/>
			</g>
		</g>
		<g>
			<g>
				<path class="st0" d="M21.5,13.5c-0.1,0-0.3-0.1-0.4-0.2l-4-4.2c-0.2-0.2-0.2-0.5,0-0.7c0.2-0.2,0.5-0.2,0.7,0l4,4.2
					c0.2,0.2,0.2,0.5,0,0.7C21.8,13.5,21.6,13.5,21.5,13.5L21.5,13.5z"/>
			</g>
		</g>
	</g>
</g>
</svg>
