<?xml version="1.0" encoding="utf-8"?>
<!-- Generator: Adobe Illustrator 22.0.1, SVG Export Plug-In . SVG Version: 6.00 Build 0)  -->
<svg version="1.1" id="Capa_1" xmlns="http://www.w3.org/2000/svg" xmlns:xlink="http://www.w3.org/1999/xlink" x="0px" y="0px"
	 viewBox="0 0 48.2 48.2" style="enable-background:new 0 0 48.2 48.2;" xml:space="preserve">
<style type="text/css">
	.st0{fill:#323A8B;}
	.st1{fill:#FFFFFF;}
</style>
<g>
	<g>
		<path class="st0" d="M24.1,0C10.8,0,0,10.8,0,24.1c0,4.7,1.3,9.1,3.7,12.8l-2.1,9.7l8.1-3.1c4,3,9,4.8,14.4,4.8
			c13.3,0,24.1-10.8,24.1-24.1C48.2,10.8,37.4,0,24.1,0z"/>
	</g>
	<g>
		<path class="st1" d="M25.6,36.5c-0.5,0.5-1.1,0.7-1.8,0.7c-0.7,0-1.3-0.2-1.9-0.7c-0.5-0.5-0.8-1.1-0.8-2c0-0.7,0.3-1.4,0.8-1.9
			c0.5-0.5,1.2-0.8,1.9-0.8c0.7,0,1.4,0.3,1.9,0.8c0.5,0.5,0.8,1.1,0.8,1.9C26.3,35.4,26.1,36,25.6,36.5z"/>
		<path class="st1" d="M32.3,20.7c-0.4,0.8-0.9,1.4-1.5,2c-0.6,0.5-1.6,1.5-3,2.8c-0.4,0.4-0.7,0.7-1,1c-0.2,0.3-0.4,0.5-0.5,0.8
			c-0.1,0.2-0.2,0.5-0.3,0.7c-0.1,0.2-0.2,0.7-0.3,1.3c-0.1,0.7,0.1,1.2-0.3,1.5h-3.9c-0.4-0.5-0.1-1.3-0.1-2.1c0-1,0.2-1.9,0.5-2.6
			c0.3-0.7,0.7-1.4,1.2-1.9c0.5-0.5,1.2-1.2,2.1-2c0.8-0.7,1.3-1.2,1.6-1.5c0.3-0.3,0.6-0.7,0.8-1.1c0.2-0.4,0.3-0.9,0.3-1.3
			c0-0.9-0.4-1.7-1.1-2.4c-0.7-0.6-1.6-1-2.7-1c-1.3,0-2.3,0.3-2.9,1c-0.6,0.7-1.6,2.9-1.6,2.9l-4.6,0.1c0,0,0.3-2.5,1-3.7
			c0.7-1.2,1.8-2.1,3.2-2.9c1.4-0.8,3-1.1,4.8-1.1c1.7,0,3.2,0.3,4.5,0.9c1.3,0.6,2.3,1.5,3,2.6c0.7,1.1,1.1,2.3,1.1,3.5
			C32.9,19.1,32.7,19.9,32.3,20.7z"/>
	</g>
</g>
</svg>
