<?xml version="1.0" encoding="utf-8"?>
<!-- Generator: Adobe Illustrator 22.0.1, SVG Export Plug-In . SVG Version: 6.00 Build 0)  -->
<svg version="1.1" id="Capa_1" xmlns="http://www.w3.org/2000/svg" xmlns:xlink="http://www.w3.org/1999/xlink" x="0px" y="0px"
	 viewBox="0 0 31.4 26.9" style="enable-background:new 0 0 31.4 26.9;" xml:space="preserve">
<style type="text/css">
	.st0{fill:#9DC44C;}
</style>
<g>
	<g>
		<path class="st0" d="M29.9,11H1.5c-0.3,0-0.5-0.2-0.6-0.4c-0.1-0.3,0-0.5,0.2-0.7l14.2-9.7c0.2-0.1,0.5-0.1,0.7,0l14.2,9.7
			c0.2,0.2,0.3,0.4,0.2,0.7C30.4,10.8,30.2,11,29.9,11L29.9,11z M3.5,9.7h24.4L15.7,1.4L3.5,9.7L3.5,9.7z"/>
	</g>
	<g>
		<g>
			<path class="st0" d="M5.1,23.2c-0.3,0-0.6-0.3-0.6-0.6V10.8c0-0.3,0.3-0.6,0.6-0.6c0.3,0,0.6,0.3,0.6,0.6v11.8
				C5.7,22.9,5.4,23.2,5.1,23.2L5.1,23.2z"/>
		</g>
		<g>
			<path class="st0" d="M26.4,23.2c-0.3,0-0.6-0.3-0.6-0.6V10.8c0-0.3,0.3-0.6,0.6-0.6c0.3,0,0.6,0.3,0.6,0.6v11.8
				C27,22.9,26.7,23.2,26.4,23.2L26.4,23.2z"/>
		</g>
		<g>
			<path class="st0" d="M10.4,23.2c-0.3,0-0.6-0.3-0.6-0.6V10.8c0-0.3,0.3-0.6,0.6-0.6c0.3,0,0.6,0.3,0.6,0.6v11.8
				C11,22.9,10.7,23.2,10.4,23.2L10.4,23.2z"/>
		</g>
		<g>
			<path class="st0" d="M15.7,23.2c-0.3,0-0.6-0.3-0.6-0.6V10.8c0-0.3,0.3-0.6,0.6-0.6s0.6,0.3,0.6,0.6v11.8
				C16.3,22.9,16.1,23.2,15.7,23.2L15.7,23.2z"/>
		</g>
		<g>
			<path class="st0" d="M21,23.2c-0.3,0-0.6-0.3-0.6-0.6V10.8c0-0.3,0.3-0.6,0.6-0.6s0.6,0.3,0.6,0.6v11.8
				C21.7,22.9,21.4,23.2,21,23.2L21,23.2z"/>
		</g>
	</g>
	<g>
		<path class="st0" d="M28.3,23.4H3.1c-0.3,0-0.6-0.3-0.6-0.6c0-0.3,0.3-0.6,0.6-0.6h25.2c0.3,0,0.6,0.3,0.6,0.6
			C29,23.1,28.7,23.4,28.3,23.4L28.3,23.4z"/>
	</g>
	<g>
		<path class="st0" d="M30.8,26.9H0.6c-0.3,0-0.6-0.3-0.6-0.6c0-0.3,0.3-0.6,0.6-0.6h30.2c0.3,0,0.6,0.3,0.6,0.6
			C31.4,26.7,31.2,26.9,30.8,26.9L30.8,26.9z"/>
	</g>
</g>
</svg>
