<?xml version="1.0" encoding="utf-8"?>
<!-- Generator: Adobe Illustrator 22.0.1, SVG Export Plug-In . SVG Version: 6.00 Build 0)  -->
<svg version="1.1" id="Capa_1" xmlns="http://www.w3.org/2000/svg" xmlns:xlink="http://www.w3.org/1999/xlink" x="0px" y="0px"
	 viewBox="0 0 47.7 62.6" style="enable-background:new 0 0 47.7 62.6;" xml:space="preserve">
<style type="text/css">
	.st0{fill:#CFD0D2;}
</style>
<g>
	<g>
		<g>
			<g>
				<g>
					<path class="st0" d="M16.9,37.6c-0.6,0-1.2-0.5-1.2-1.1l-0.4-3.7l-3.8,0c-0.7,0-1.2-0.6-1.2-1.2c0-0.7,0.6-1.2,1.2-1.2l4.9,0
						c0.6,0,1.2,0.5,1.2,1.1l0.5,4.8c0,0.3-0.1,0.6-0.3,0.9c-0.2,0.3-0.5,0.4-0.8,0.5L16.9,37.6z M16.9,36.2v0.7V36.2L16.9,36.2
						L16.9,36.2z M11.5,31.6L11.5,31.6C11.5,31.6,11.5,31.6,11.5,31.6z"/>
				</g>
			</g>
			<g>
				<g>
					<path class="st0" d="M23.7,53.1c-3.4,0-6.6-1.3-9-3.8c-2.4-2.4-3.7-5.6-3.7-9c0-3.4,1.3-6.6,3.7-9c0.2-0.2,0.5-0.4,0.9-0.4
						c0,0,0,0,0,0c0.3,0,0.6,0.1,0.9,0.4c0.5,0.5,0.5,1.3,0,1.7c-2,1.9-3,4.5-3,7.3s1.1,5.3,3,7.3c2.5,2.5,6.1,3.6,9.5,2.8
						c0.7-0.1,1.3,0.3,1.5,0.9c0.1,0.3,0,0.6-0.2,0.9s-0.5,0.5-0.8,0.5C25.6,53,24.6,53.1,23.7,53.1z"/>
				</g>
			</g>
			<g>
				<g>
					<path class="st0" d="M32,49.5c-0.3,0-0.6-0.1-0.9-0.4c-0.2-0.2-0.4-0.5-0.4-0.9c0-0.3,0.1-0.6,0.4-0.9c4-4,4-10.6,0-14.6
						c-2.5-2.5-6.1-3.6-9.6-2.8c-0.3,0.1-0.6,0-0.9-0.2c-0.3-0.2-0.5-0.5-0.5-0.8c-0.1-0.3,0-0.7,0.2-0.9c0.2-0.3,0.5-0.5,0.8-0.5
						c4.3-1,8.7,0.3,11.8,3.4c5,5,5,13.1,0,18.1C32.6,49.4,32.3,49.5,32,49.5z"/>
				</g>
			</g>
			<g>
				<g>
					<path class="st0" d="M36.2,50.2l-4.9,0c-0.6,0-1.2-0.5-1.2-1.1l-0.5-4.9c0-0.3,0.1-0.6,0.3-0.9c0.2-0.3,0.5-0.4,0.8-0.5
						c0.3,0,0.6,0.1,0.9,0.3c0.3,0.2,0.4,0.5,0.5,0.8l0.4,3.7l3.8,0c0.7,0,1.2,0.6,1.2,1.2S36.9,50.2,36.2,50.2z M36.2,48.9
						C36.2,48.9,36.2,48.9,36.2,48.9L36.2,48.9z"/>
				</g>
			</g>
		</g>
	</g>
	<g>
		<g>
			<g>
				<path class="st0" d="M43.6,62.6H4.1c-2.2,0-4.1-1.8-4.1-4.1V18C0,15.8,1.8,14,4.1,14h39.6c2.2,0,4.1,1.8,4.1,4.1v40.5
					C47.7,60.8,45.8,62.6,43.6,62.6L43.6,62.6z M4.1,16.7c-0.7,0-1.4,0.6-1.4,1.4v40.5c0,0.7,0.6,1.4,1.4,1.4h39.6
					c0.7,0,1.4-0.6,1.4-1.4V18c0-0.7-0.6-1.4-1.4-1.4H4.1L4.1,16.7z"/>
			</g>
		</g>
		<g>
			<g>
				<path class="st0" d="M33.6,11.1c-0.7,0-1.4-0.6-1.4-1.4V4.1c0-0.7-0.6-1.4-1.4-1.4H16.7c-0.7,0-1.4,0.6-1.4,1.4v5.7
					c0,0.7-0.6,1.4-1.4,1.4s-1.4-0.6-1.4-1.4V4.1c0-2.2,1.8-4.1,4.1-4.1h14.2C33.1,0,35,1.8,35,4.1v5.7C35,10.5,34.4,11.1,33.6,11.1
					L33.6,11.1z"/>
			</g>
		</g>
	</g>
</g>
</svg>
