<?xml version="1.0" encoding="utf-8"?>
<!-- Generator: Adobe Illustrator 22.0.1, SVG Export Plug-In . SVG Version: 6.00 Build 0)  -->
<svg version="1.1" id="Capa_1" xmlns="http://www.w3.org/2000/svg" xmlns:xlink="http://www.w3.org/1999/xlink" x="0px" y="0px"
	 viewBox="0 0 48.6 48.6" style="enable-background:new 0 0 48.6 48.6;" xml:space="preserve">
<style type="text/css">
	.st0{fill:#CFD0D2;}
</style>
<g>
	<g>
		<path class="st0" d="M24.3,48.6C10.9,48.6,0,37.7,0,24.3S10.9,0,24.3,0c13.4,0,24.3,10.9,24.3,24.3S37.7,48.6,24.3,48.6L24.3,48.6
			z M24.3,2.2c-12.2,0-22.2,9.9-22.2,22.2s9.9,22.2,22.2,22.2c12.2,0,22.2-9.9,22.2-22.2S36.5,2.2,24.3,2.2L24.3,2.2z"/>
	</g>
	<g>
		<path class="st0" d="M24.3,35.7c-6.3,0-11.4-5.1-11.4-11.4S18,12.9,24.3,12.9c6.3,0,11.4,5.1,11.4,11.4S30.6,35.7,24.3,35.7
			L24.3,35.7z M24.3,15.1c-5.1,0-9.2,4.1-9.2,9.2s4.1,9.2,9.2,9.2s9.2-4.1,9.2-9.2S29.4,15.1,24.3,15.1L24.3,15.1z"/>
	</g>
	<g>
		<g>
			<path class="st0" d="M19.9,15.4c-0.6,0-1.1-0.5-1.1-1.1v-12c0-0.6,0.5-1.1,1.1-1.1c0.6,0,1.1,0.5,1.1,1.1v12
				C21,15,20.5,15.4,19.9,15.4L19.9,15.4z"/>
		</g>
		<g>
			<path class="st0" d="M28.7,15.4c-0.6,0-1.1-0.5-1.1-1.1v-12c0-0.6,0.5-1.1,1.1-1.1c0.6,0,1.1,0.5,1.1,1.1v12
				C29.8,15,29.3,15.4,28.7,15.4L28.7,15.4z"/>
		</g>
	</g>
	<g>
		<g>
			<path class="st0" d="M19.9,47.4c-0.6,0-1.1-0.5-1.1-1.1v-12c0-0.6,0.5-1.1,1.1-1.1c0.6,0,1.1,0.5,1.1,1.1v12
				C21,46.9,20.5,47.4,19.9,47.4L19.9,47.4z"/>
		</g>
		<g>
			<path class="st0" d="M28.7,47.4c-0.6,0-1.1-0.5-1.1-1.1v-12c0-0.6,0.5-1.1,1.1-1.1c0.6,0,1.1,0.5,1.1,1.1v12
				C29.8,46.9,29.3,47.4,28.7,47.4L28.7,47.4z"/>
		</g>
	</g>
	<g>
		<g>
			<path class="st0" d="M46.3,21h-12c-0.6,0-1.1-0.5-1.1-1.1c0-0.6,0.5-1.1,1.1-1.1h12c0.6,0,1.1,0.5,1.1,1.1
				C47.4,20.5,46.9,21,46.3,21L46.3,21z"/>
		</g>
		<g>
			<path class="st0" d="M46.3,29.8h-12c-0.6,0-1.1-0.5-1.1-1.1c0-0.6,0.5-1.1,1.1-1.1h12c0.6,0,1.1,0.5,1.1,1.1
				C47.4,29.3,46.9,29.8,46.3,29.8L46.3,29.8z"/>
		</g>
	</g>
	<g>
		<g>
			<path class="st0" d="M14.3,21h-12c-0.6,0-1.1-0.5-1.1-1.1c0-0.6,0.5-1.1,1.1-1.1h12c0.6,0,1.1,0.5,1.1,1.1
				C15.4,20.5,14.9,21,14.3,21L14.3,21z"/>
		</g>
		<g>
			<path class="st0" d="M14.3,29.8h-12c-0.6,0-1.1-0.5-1.1-1.1c0-0.6,0.5-1.1,1.1-1.1h12c0.6,0,1.1,0.5,1.1,1.1
				C15.4,29.3,14.9,29.8,14.3,29.8L14.3,29.8z"/>
		</g>
	</g>
</g>
</svg>
