<?xml version="1.0" encoding="utf-8"?>
<!-- Generator: Adobe Illustrator 22.0.1, SVG Export Plug-In . SVG Version: 6.00 Build 0)  -->
<svg version="1.1" id="Capa_1" xmlns="http://www.w3.org/2000/svg" xmlns:xlink="http://www.w3.org/1999/xlink" x="0px" y="0px"
	 viewBox="0 0 30.1 29.4" style="enable-background:new 0 0 30.1 29.4;" xml:space="preserve">
<style type="text/css">
	.st0{fill:#9DC44C;}
</style>
<g>
	<g>
		<g>
			<path class="st0" d="M9.6,21.1c-0.2,0-0.3-0.1-0.5-0.2C9.1,20.8,9,20.6,9,20.4l0.3-5c0-0.2,0.1-0.3,0.2-0.4L24.3,0.2
				C24.4,0.1,24.6,0,24.8,0l0,0c0.2,0,0.3,0.1,0.5,0.2l4.7,4.7C30,5,30.1,5.1,30.1,5.3S30,5.7,29.9,5.8L15.1,20.6
				c-0.1,0.1-0.3,0.2-0.4,0.2L9.6,21.1C9.7,21.1,9.7,21.1,9.6,21.1L9.6,21.1z M10.6,15.7l-0.2,4l4-0.2L28.5,5.3l-3.8-3.8L10.6,15.7
				L10.6,15.7z"/>
		</g>
		<g>
			<path class="st0" d="M26.8,8.1c-0.2,0-0.3-0.1-0.5-0.2l-4.2-4.2c-0.3-0.3-0.3-0.7,0-0.9c0.3-0.3,0.7-0.3,0.9,0L27.3,7
				c0.3,0.3,0.3,0.7,0,0.9C27.1,8.1,27,8.1,26.8,8.1L26.8,8.1z"/>
		</g>
		<g>
			<path class="st0" d="M13.1,17.7c-0.2,0-0.3-0.1-0.5-0.2c-0.3-0.3-0.3-0.7,0-0.9L24.2,5c0.3-0.3,0.7-0.3,0.9,0
				c0.3,0.3,0.3,0.7,0,0.9L13.5,17.5C13.4,17.6,13.2,17.7,13.1,17.7L13.1,17.7z"/>
		</g>
		<g>
			<path class="st0" d="M9.7,21.1c-0.2,0-0.3-0.1-0.5-0.2C9.1,20.8,9,20.6,9,20.4L9.2,18c0-0.3,0.2-0.5,0.5-0.6c0.1,0,0.2,0,0.2,0
				c0.1,0,0.2,0,0.3,0c0.7,0,1.4,0.3,1.9,0.8c0.5,0.5,0.7,1.2,0.6,2c0,0.1,0,0.2-0.1,0.3c-0.1,0.3-0.3,0.5-0.6,0.5L9.7,21.1
				C9.7,21.1,9.7,21.1,9.7,21.1L9.7,21.1z M10.4,18.7l-0.1,1.1l1.1-0.1c0-0.3-0.1-0.5-0.3-0.7C10.9,18.8,10.7,18.7,10.4,18.7
				L10.4,18.7z"/>
		</g>
	</g>
	<g>
		<path class="st0" d="M23.3,29.4H0V9.2l7.3-7.3h15.3c0.4,0,0.6,0.3,0.6,0.6S23,3.1,22.6,3.1H7.8L1.3,9.7v18.4H22V12.4
			c0-0.4,0.3-0.6,0.6-0.6c0.4,0,0.6,0.3,0.6,0.6V29.4L23.3,29.4z"/>
	</g>
	<g>
		<path class="st0" d="M8.2,10.1H0.6C0.3,10.1,0,9.8,0,9.4c0-0.4,0.3-0.6,0.6-0.6h6.3V2.5c0-0.4,0.3-0.6,0.6-0.6
			c0.4,0,0.6,0.3,0.6,0.6V10.1L8.2,10.1z"/>
	</g>
</g>
</svg>
