<?xml version="1.0" encoding="utf-8"?>
<!-- Generator: Adobe Illustrator 22.0.1, SVG Export Plug-In . SVG Version: 6.00 Build 0)  -->
<svg version="1.1" id="Capa_1" xmlns="http://www.w3.org/2000/svg" xmlns:xlink="http://www.w3.org/1999/xlink" x="0px" y="0px"
	 viewBox="0 0 51.2 52.5" style="enable-background:new 0 0 51.2 52.5;" xml:space="preserve">
<style type="text/css">
	.st0{fill:#CFD0D2;}
</style>
<g>
	<g>
		<g>
			<path class="st0" d="M25.6,27.3c-0.2,0-0.5-0.1-0.7-0.2L12.4,18c-0.5-0.4-0.6-1.1-0.3-1.6c0.4-0.5,1.1-0.6,1.6-0.3l11.8,8.6
				l11.8-8.6c0.5-0.4,1.2-0.3,1.6,0.3c0.4,0.5,0.3,1.2-0.3,1.6l-12.5,9.1C26.1,27.3,25.8,27.3,25.6,27.3L25.6,27.3z"/>
		</g>
		<g>
			<path class="st0" d="M25.6,27.3c-0.6,0-1.2-0.5-1.2-1.2v-25c0-0.6,0.5-1.2,1.2-1.2s1.2,0.5,1.2,1.2v25
				C26.7,26.8,26.2,27.3,25.6,27.3L25.6,27.3z"/>
		</g>
	</g>
	<g>
		<path class="st0" d="M50,52.5H1.2C0.5,52.5,0,52,0,51.4V34.9c0-0.6,0.5-1.2,1.2-1.2h15.1c0.6,0,1.2,0.5,1.2,1.2v3.3
			c0,0.6,0.5,1.2,1.2,1.2h14c0.6,0,1.2-0.5,1.2-1.2v-3.3c0-0.6,0.5-1.2,1.2-1.2H50c0.6,0,1.2,0.5,1.2,1.2v16.5
			C51.2,52,50.6,52.5,50,52.5L50,52.5z M2.3,50.2h46.5V36.1H36v2.1c0,1.9-1.6,3.5-3.5,3.5h-14c-1.9,0-3.5-1.6-3.5-3.5v-2.1H2.3V50.2
			L2.3,50.2z"/>
	</g>
	<g>
		<g>
			<g>
				<path class="st0" d="M1.2,36.1c-0.3,0-0.6-0.1-0.8-0.3c-0.5-0.4-0.5-1.2,0-1.6l9.4-9.7c0.5-0.5,1.2-0.5,1.6,0
					c0.5,0.4,0.5,1.2,0,1.6L2,35.7C1.8,35.9,1.5,36.1,1.2,36.1L1.2,36.1z"/>
			</g>
		</g>
		<g>
			<g>
				<path class="st0" d="M50,36.1c-0.3,0-0.6-0.1-0.8-0.4L39.8,26c-0.4-0.5-0.4-1.2,0-1.6c0.5-0.4,1.2-0.4,1.6,0l9.4,9.7
					c0.4,0.5,0.4,1.2,0,1.6C50.6,35.9,50.3,36.1,50,36.1L50,36.1z"/>
			</g>
		</g>
	</g>
</g>
</svg>
