<?xml version="1.0" encoding="utf-8"?>
<!-- Generator: Adobe Illustrator 22.0.1, SVG Export Plug-In . SVG Version: 6.00 Build 0)  -->
<svg version="1.1" id="Capa_1" xmlns="http://www.w3.org/2000/svg" xmlns:xlink="http://www.w3.org/1999/xlink" x="0px" y="0px"
	 viewBox="0 0 16.2 34.7" style="enable-background:new 0 0 16.2 34.7;" xml:space="preserve">
<style type="text/css">
	.st0{fill:#9DC44C;}
</style>
<g>
	<path class="st0" d="M7.2,30.2c-1.6-0.1-2.9-0.4-4.1-1c-1.2-0.6-2.2-1.4-3.1-2.4l0.5-0.7c0.1-0.2,0.3-0.3,0.5-0.3
		c0.1,0,0.2,0.1,0.4,0.2c0.2,0.1,0.4,0.3,0.6,0.5c0.2,0.2,0.5,0.4,0.8,0.7c0.3,0.2,0.7,0.5,1.1,0.7c0.4,0.2,0.9,0.4,1.4,0.6
		c0.5,0.2,1.2,0.3,1.8,0.3L7.8,17c-0.8-0.3-1.6-0.5-2.4-0.9c-0.8-0.3-1.5-0.7-2.1-1.2c-0.6-0.5-1.1-1.1-1.5-1.8
		c-0.4-0.7-0.6-1.6-0.6-2.7c0-0.8,0.2-1.7,0.5-2.5C2,7.1,2.5,6.4,3.1,5.8c0.6-0.6,1.4-1.1,2.3-1.5c0.9-0.4,1.9-0.6,3.1-0.6l0.2-3.1
		c0-0.2,0.1-0.3,0.2-0.4C8.9,0.1,9,0,9.2,0h0.7L9.7,3.7c1.2,0.1,2.3,0.4,3.3,0.8c0.9,0.5,1.8,1.1,2.6,1.8L15.1,7
		c-0.1,0.2-0.3,0.3-0.5,0.3c-0.1,0-0.3-0.1-0.6-0.3c-0.2-0.2-0.6-0.4-0.9-0.7c-0.4-0.2-0.9-0.5-1.4-0.7c-0.6-0.2-1.3-0.4-2.1-0.4
		L9.1,15.7c0.6,0.2,1.2,0.4,1.7,0.6c0.6,0.2,1.1,0.4,1.7,0.7c0.5,0.2,1,0.5,1.5,0.8c0.5,0.3,0.8,0.7,1.2,1.1
		c0.3,0.4,0.6,0.9,0.8,1.5c0.2,0.6,0.3,1.2,0.3,1.9c0,1.1-0.2,2-0.5,3c-0.4,0.9-0.9,1.8-1.5,2.5c-0.7,0.7-1.5,1.3-2.5,1.7
		c-1,0.4-2.1,0.7-3.3,0.7l-0.2,3.9c0,0.2-0.1,0.3-0.2,0.4c-0.1,0.1-0.2,0.2-0.4,0.2H7L7.2,30.2z M2.9,10.2c0,0.8,0.1,1.4,0.4,1.9
		c0.3,0.5,0.6,1,1.1,1.4c0.5,0.4,1,0.7,1.6,1c0.6,0.3,1.3,0.5,1.9,0.8L8.4,5.2C7.5,5.2,6.7,5.4,6,5.7C5.3,6,4.7,6.4,4.2,6.8
		c-0.5,0.5-0.8,1-1,1.6C3,9,2.9,9.6,2.9,10.2z M14.6,22.6c0-0.8-0.2-1.5-0.5-2.1c-0.3-0.6-0.7-1-1.2-1.4c-0.5-0.4-1.1-0.7-1.8-1
		c-0.7-0.3-1.4-0.5-2.1-0.7L8.4,28.7c1-0.1,1.9-0.3,2.6-0.6c0.8-0.3,1.4-0.8,1.9-1.3c0.5-0.5,0.9-1.2,1.2-1.9
		C14.4,24.2,14.6,23.4,14.6,22.6z"/>
</g>
</svg>
