<?xml version="1.0" encoding="utf-8"?>
<!-- Generator: Adobe Illustrator 22.0.1, SVG Export Plug-In . SVG Version: 6.00 Build 0)  -->
<svg version="1.1" id="Capa_1" xmlns="http://www.w3.org/2000/svg" xmlns:xlink="http://www.w3.org/1999/xlink" x="0px" y="0px"
	 viewBox="0 0 25.3 54.6" style="enable-background:new 0 0 25.3 54.6;" xml:space="preserve">
<style type="text/css">
	.st0{fill:#CFD0D2;}
</style>
<path class="st0" d="M0,5.2c0.7-0.7,1.4-1.3,2.3-2c0.9-0.6,1.8-1.2,2.8-1.7c1-0.5,2.1-0.9,3.3-1.2C9.7,0.1,11,0,12.4,0
	c1.8,0,3.4,0.3,5,0.8c1.6,0.5,2.9,1.3,4.1,2.3c1.2,1,2.1,2.2,2.8,3.6c0.7,1.4,1,3,1,4.8c0,1.9-0.3,3.6-0.9,4.9
	c-0.6,1.4-1.3,2.6-2.2,3.6c-0.9,1-1.9,2-2.9,2.8c-1.1,0.8-2,1.5-3,2.2c-0.9,0.7-1.7,1.4-2.3,2.1c-0.6,0.7-1,1.5-1,2.3l-0.5,6.2H10
	l-0.2-6.5V29c0-1,0.3-1.9,0.9-2.7c0.6-0.8,1.4-1.5,2.2-2.3c0.9-0.7,1.9-1.5,2.9-2.2c1-0.8,2-1.6,2.9-2.5c0.9-0.9,1.6-2,2.2-3.3
	c0.6-1.2,0.9-2.7,0.9-4.4c0-1.4-0.3-2.6-0.8-3.6c-0.5-1.1-1.2-2-2.2-2.7c-0.9-0.7-2-1.3-3.1-1.7c-1.2-0.4-2.4-0.6-3.7-0.6
	c-1.7,0-3.1,0.2-4.3,0.7C6.6,4,5.6,4.5,4.7,5.1c-0.8,0.5-1.5,1-2,1.5C2.3,7,1.9,7.2,1.8,7.2c-0.4,0-0.7-0.2-0.8-0.5L0,5.2z
	 M7.6,51.1c0-0.5,0.1-0.9,0.3-1.4c0.2-0.4,0.4-0.8,0.7-1.1c0.3-0.3,0.7-0.6,1.1-0.8c0.4-0.2,0.9-0.3,1.4-0.3c0.5,0,0.9,0.1,1.4,0.3
	c0.4,0.2,0.8,0.4,1.1,0.8c0.3,0.3,0.6,0.7,0.8,1.1c0.2,0.4,0.3,0.9,0.3,1.4c0,0.5-0.1,1-0.3,1.4c-0.2,0.4-0.4,0.8-0.8,1.1
	c-0.3,0.3-0.7,0.6-1.1,0.7c-0.4,0.2-0.9,0.3-1.4,0.3c-1,0-1.8-0.3-2.5-1C8,52.9,7.6,52.1,7.6,51.1z"/>
</svg>
