<?xml version="1.0" encoding="utf-8"?>
<!-- Generator: Adobe Illustrator 22.0.1, SVG Export Plug-In . SVG Version: 6.00 Build 0)  -->
<svg version="1.1" id="Capa_1" xmlns="http://www.w3.org/2000/svg" xmlns:xlink="http://www.w3.org/1999/xlink" x="0px" y="0px"
	 viewBox="0 0 11.4 16.1" style="enable-background:new 0 0 11.4 16.1;" xml:space="preserve">
<style type="text/css">
	.st0{fill:#6C6D70;}
</style>
<g>
	<g>
		<path class="st0" d="M11.1,2.6H0.3C0.1,2.6,0,2.4,0,2.2C0,2,0.1,1.9,0.3,1.9h10.9c0.1,0,0.3,0.2,0.3,0.4
			C11.4,2.4,11.3,2.6,11.1,2.6L11.1,2.6z"/>
	</g>
	<g>
		<path class="st0" d="M7.3,2.5c-0.2-1-0.8-1.8-1.6-1.8c-0.8,0-1.5,0.7-1.6,1.8L3.6,2.3C3.8,1,4.7,0,5.7,0c1,0,1.9,1,2.1,2.3
			L7.3,2.5L7.3,2.5z"/>
	</g>
	<g>
		<path class="st0" d="M9.2,16.1H2.2c-0.4,0-0.8-0.5-0.8-1L0.8,2.9c0-0.2,0.1-0.4,0.2-0.4c0.1,0,0.3,0.1,0.3,0.3L1.9,15
			c0,0.2,0.1,0.4,0.3,0.4h7.1c0.1,0,0.2-0.2,0.3-0.4L10,2.9c0-0.2,0.1-0.3,0.3-0.3c0.1,0,0.3,0.2,0.2,0.4L10,15.1
			C10,15.6,9.6,16.1,9.2,16.1L9.2,16.1z"/>
	</g>
	<g>
		<g>
			<path class="st0" d="M3.7,13.5c-0.1,0-0.3-0.1-0.3-0.3L3.1,4.8c0-0.2,0.1-0.4,0.2-0.4c0.1,0,0.3,0.1,0.3,0.3L4,13.1
				C4,13.3,3.9,13.5,3.7,13.5C3.7,13.5,3.7,13.5,3.7,13.5L3.7,13.5z"/>
		</g>
		<g>
			<path class="st0" d="M7.7,13.5C7.7,13.5,7.7,13.5,7.7,13.5c-0.2,0-0.3-0.2-0.3-0.4l0.3-8.3c0-0.2,0.1-0.4,0.3-0.3
				c0.1,0,0.3,0.2,0.2,0.4l-0.3,8.3C7.9,13.4,7.8,13.5,7.7,13.5L7.7,13.5z"/>
		</g>
	</g>
	<g>
		<path class="st0" d="M5.7,13.5c-0.1,0-0.3-0.2-0.3-0.4V4.8c0-0.2,0.1-0.4,0.3-0.4c0.1,0,0.3,0.2,0.3,0.4v8.3
			C5.9,13.4,5.8,13.5,5.7,13.5L5.7,13.5z"/>
	</g>
</g>
</svg>
