<?xml version="1.0" encoding="utf-8"?>
<!-- Generator: Adobe Illustrator 22.0.1, SVG Export Plug-In . SVG Version: 6.00 Build 0)  -->
<svg version="1.1" id="Capa_1" xmlns="http://www.w3.org/2000/svg" xmlns:xlink="http://www.w3.org/1999/xlink" x="0px" y="0px"
	 viewBox="0 0 22 24.9" style="enable-background:new 0 0 22 24.9;" xml:space="preserve">
<style type="text/css">
	.st0{fill:#FFFFFF;}
	.st1{fill:#FDFEFF;}
</style>
<g>
	<g>
		<g>
			<path class="st0" d="M21.4-120.9H-1.6c-0.2,0-0.4-0.1-0.5-0.4c-0.1-0.2,0-0.4,0.2-0.6l11.5-7.8c0.2-0.1,0.4-0.1,0.6,0l11.5,7.8
				c0.2,0.1,0.3,0.4,0.2,0.6C21.8-121.1,21.6-120.9,21.4-120.9L21.4-120.9z M0.1-121.9h19.7l-9.9-6.7L0.1-121.9L0.1-121.9z"/>
		</g>
		<g>
			<g>
				<path class="st0" d="M1.3-111c-0.3,0-0.5-0.2-0.5-0.5v-9.5c0-0.3,0.2-0.5,0.5-0.5s0.5,0.2,0.5,0.5v9.5
					C1.8-111.3,1.6-111,1.3-111L1.3-111z"/>
			</g>
			<g>
				<path class="st0" d="M18.5-111c-0.3,0-0.5-0.2-0.5-0.5v-9.5c0-0.3,0.2-0.5,0.5-0.5s0.5,0.2,0.5,0.5v9.5
					C19-111.3,18.8-111,18.5-111L18.5-111z"/>
			</g>
			<g>
				<path class="st0" d="M5.6-111c-0.3,0-0.5-0.2-0.5-0.5v-9.5c0-0.3,0.2-0.5,0.5-0.5c0.3,0,0.5,0.2,0.5,0.5v9.5
					C6.1-111.3,5.9-111,5.6-111L5.6-111z"/>
			</g>
			<g>
				<path class="st0" d="M9.9-111c-0.3,0-0.5-0.2-0.5-0.5v-9.5c0-0.3,0.2-0.5,0.5-0.5c0.3,0,0.5,0.2,0.5,0.5v9.5
					C10.4-111.3,10.2-111,9.9-111L9.9-111z"/>
			</g>
			<g>
				<path class="st0" d="M14.2-111c-0.3,0-0.5-0.2-0.5-0.5v-9.5c0-0.3,0.2-0.5,0.5-0.5c0.3,0,0.5,0.2,0.5,0.5v9.5
					C14.7-111.3,14.5-111,14.2-111L14.2-111z"/>
			</g>
		</g>
		<g>
			<path class="st0" d="M20.1-110.9H-0.3c-0.3,0-0.5-0.2-0.5-0.5c0-0.3,0.2-0.5,0.5-0.5h20.4c0.3,0,0.5,0.2,0.5,0.5
				C20.6-111.1,20.4-110.9,20.1-110.9L20.1-110.9z"/>
		</g>
		<g>
			<path class="st0" d="M22.1-108H-2.3c-0.3,0-0.5-0.2-0.5-0.5c0-0.3,0.2-0.5,0.5-0.5h24.4c0.3,0,0.5,0.2,0.5,0.5
				C22.6-108.3,22.4-108,22.1-108L22.1-108z"/>
		</g>
	</g>
</g>
<g>
	<path class="st0" d="M12.2-238.5H9.3c-0.7,0-1.3-0.6-1.3-1.3v-1.8c0-0.2-0.2-0.4-0.4-0.5l-0.9-0.4c-0.3-0.1-0.5,0-0.6,0.1l-1.3,1.3
		c-0.5,0.5-1.4,0.5-1.9,0l-2-2c-0.2-0.2-0.4-0.6-0.4-0.9c0-0.4,0.1-0.7,0.4-0.9l1.3-1.3c0.1-0.1,0.2-0.4,0.1-0.6L2-247.7
		c-0.1-0.2-0.3-0.4-0.5-0.4h-1.8c-0.7,0-1.3-0.6-1.3-1.3v-2.8c0-0.7,0.6-1.3,1.3-1.3h1.8c0.2,0,0.4-0.2,0.5-0.4l0.4-0.9
		c0.1-0.2,0.1-0.5-0.1-0.6L1-256.7c-0.2-0.2-0.4-0.6-0.4-0.9s0.1-0.7,0.4-0.9l2-2c0.5-0.5,1.4-0.5,1.9,0l1.3,1.3
		c0.1,0.1,0.4,0.2,0.6,0.1l0.9-0.4c0.2-0.1,0.4-0.3,0.4-0.5v-1.8c0-0.7,0.6-1.3,1.3-1.3h2.8c0.7,0,1.3,0.6,1.3,1.3v1.8
		c0,0.2,0.2,0.4,0.4,0.5l0.9,0.4c0.3,0.1,0.5,0,0.6-0.1l1.3-1.3c0.5-0.5,1.4-0.5,1.9,0l2,2c0.2,0.2,0.4,0.6,0.4,0.9
		s-0.1,0.7-0.4,0.9l-1.3,1.3c-0.1,0.1-0.2,0.4-0.1,0.6l0.4,0.9c0.1,0.2,0.3,0.4,0.5,0.4h1.8c0.7,0,1.3,0.6,1.3,1.3v2.8
		c0,0.7-0.6,1.3-1.3,1.3H20c-0.2,0-0.4,0.2-0.5,0.4l-0.4,0.9c-0.1,0.2,0,0.5,0.1,0.6l1.3,1.3c0.2,0.2,0.4,0.6,0.4,0.9
		c0,0.4-0.1,0.7-0.4,0.9l-2,2c-0.5,0.5-1.4,0.5-1.9,0l-1.3-1.3c-0.1-0.1-0.4-0.2-0.6-0.1l-0.9,0.4c-0.2,0.1-0.4,0.3-0.4,0.5v1.8
		C13.5-239.1,12.9-238.5,12.2-238.5L12.2-238.5z M6.5-243.6c0.3,0,0.5,0.1,0.7,0.2l0.8,0.3c0.6,0.2,1.1,0.9,1.1,1.5v1.8
		c0,0.1,0.1,0.2,0.2,0.2h2.8c0.1,0,0.2-0.1,0.2-0.2v-1.8c0-0.7,0.5-1.3,1.1-1.5l0.8-0.3c0.5-0.2,1.4-0.1,1.8,0.3l1.3,1.3
		c0.1,0.1,0.2,0.1,0.3,0l2-2c0.1-0.1,0.1-0.1,0.1-0.2c0,0,0-0.1-0.1-0.2l-1.3-1.3c-0.5-0.5-0.6-1.3-0.3-1.9l0.3-0.8
		c0.2-0.6,0.9-1.1,1.5-1.1h1.8c0.1,0,0.2-0.1,0.2-0.2v-2.8c0-0.1-0.1-0.2-0.2-0.2H20c-0.7,0-1.3-0.5-1.5-1.1l-0.3-0.8
		c-0.3-0.6-0.2-1.4,0.3-1.8l1.3-1.3c0.1-0.1,0.1-0.1,0.1-0.2c0,0,0-0.1-0.1-0.2l-2-2c-0.1-0.1-0.2-0.1-0.3,0l-1.3,1.3
		c-0.5,0.5-1.3,0.6-1.9,0.3l-0.8-0.3c-0.6-0.2-1.1-0.9-1.1-1.5v-1.8c0-0.1-0.1-0.2-0.2-0.2H9.3c-0.1,0-0.2,0.1-0.2,0.2v1.8
		c0,0.7-0.5,1.3-1.1,1.5l-0.8,0.3c-0.5,0.2-1.4,0.1-1.8-0.3l-1.3-1.3c-0.1-0.1-0.2-0.1-0.3,0l-2,2c-0.1,0.1-0.1,0.1-0.1,0.2
		c0,0,0,0.1,0.1,0.2l1.3,1.3c0.5,0.5,0.6,1.3,0.3,1.9L3-253.6c-0.2,0.6-0.9,1.1-1.5,1.1h-1.8c-0.1,0-0.2,0.1-0.2,0.2v2.8
		c0,0.1,0.1,0.2,0.2,0.2h1.8c0.7,0,1.3,0.5,1.5,1.1l0.3,0.8c0.3,0.6,0.2,1.4-0.3,1.8l-1.3,1.3c-0.1,0.1-0.1,0.1-0.1,0.2
		c0,0,0,0.1,0.1,0.2l2,2c0.1,0.1,0.2,0.1,0.3,0l1.3-1.3C5.7-243.5,6.1-243.6,6.5-243.6L6.5-243.6z M10.7-246.6
		c-2.4,0-4.3-1.9-4.3-4.3c0-2.4,1.9-4.3,4.3-4.3c2.4,0,4.3,1.9,4.3,4.3C15-248.5,13.1-246.6,10.7-246.6L10.7-246.6z M10.7-254
		c-1.8,0-3.2,1.4-3.2,3.2c0,1.8,1.4,3.2,3.2,3.2c1.8,0,3.2-1.4,3.2-3.2C13.9-252.6,12.5-254,10.7-254L10.7-254z"/>
</g>
<g>
	<g>
		<g>
			<g>
				<g>
					<path class="st1" d="M7.7-163.8c-0.3,0-0.5-0.2-0.5-0.5l-0.2-1.7l-1.7,0c-0.3,0-0.5-0.2-0.5-0.5c0-0.3,0.2-0.5,0.5-0.5l2.2,0
						c0.3,0,0.5,0.2,0.5,0.5l0.2,2.1c0,0.1,0,0.3-0.1,0.4C8-163.9,7.9-163.8,7.7-163.8L7.7-163.8z M7.7-164.4v0.3V-164.4L7.7-164.4
						L7.7-164.4z M5.3-166.4L5.3-166.4C5.3-166.4,5.3-166.4,5.3-166.4z"/>
				</g>
			</g>
			<g>
				<g>
					<path class="st1" d="M10.7-156.9c-1.5,0-2.9-0.6-4-1.7c-1.1-1.1-1.7-2.5-1.7-4c0-1.5,0.6-2.9,1.7-4c0.1-0.1,0.2-0.2,0.4-0.2
						c0,0,0,0,0,0c0.1,0,0.3,0.1,0.4,0.2c0.2,0.2,0.2,0.6,0,0.8c-0.9,0.9-1.3,2-1.3,3.2c0,1.2,0.5,2.4,1.3,3.2
						c1.1,1.1,2.7,1.6,4.2,1.2c0.3-0.1,0.6,0.1,0.7,0.4c0,0.1,0,0.3-0.1,0.4c-0.1,0.1-0.2,0.2-0.3,0.2
						C11.5-156.9,11.1-156.9,10.7-156.9z"/>
				</g>
			</g>
			<g>
				<g>
					<path class="st1" d="M14.4-158.5c-0.1,0-0.3-0.1-0.4-0.2c-0.1-0.1-0.2-0.2-0.2-0.4c0-0.1,0.1-0.3,0.2-0.4
						c1.8-1.8,1.8-4.7,0-6.5c-1.1-1.1-2.7-1.6-4.2-1.2c-0.1,0-0.3,0-0.4-0.1c-0.1-0.1-0.2-0.2-0.2-0.3c0-0.1,0-0.3,0.1-0.4
						c0.1-0.1,0.2-0.2,0.3-0.2c1.9-0.4,3.9,0.1,5.2,1.5c2.2,2.2,2.2,5.8,0,8C14.7-158.6,14.5-158.5,14.4-158.5z"/>
				</g>
			</g>
			<g>
				<g>
					<path class="st1" d="M16.2-158.2l-2.2,0c-0.3,0-0.5-0.2-0.5-0.5l-0.2-2.2c0-0.1,0-0.3,0.1-0.4c0.1-0.1,0.2-0.2,0.4-0.2
						c0.1,0,0.3,0,0.4,0.1c0.1,0.1,0.2,0.2,0.2,0.4l0.2,1.7l1.7,0c0.3,0,0.5,0.2,0.5,0.5S16.5-158.2,16.2-158.2z M16.2-158.8
						C16.2-158.8,16.2-158.8,16.2-158.8L16.2-158.8z"/>
				</g>
			</g>
		</g>
	</g>
	<g>
		<g>
			<g>
				<path class="st1" d="M19.5-152.7H2c-1,0-1.8-0.8-1.8-1.8v-18c0-1,0.8-1.8,1.8-1.8h17.5c1,0,1.8,0.8,1.8,1.8v18
					C21.3-153.5,20.5-152.7,19.5-152.7L19.5-152.7z M2-173c-0.3,0-0.6,0.3-0.6,0.6v18c0,0.3,0.3,0.6,0.6,0.6h17.5
					c0.3,0,0.6-0.3,0.6-0.6v-18c0-0.3-0.3-0.6-0.6-0.6H2L2-173z"/>
			</g>
		</g>
		<g>
			<g>
				<path class="st1" d="M15.1-175.5c-0.3,0-0.6-0.3-0.6-0.6v-2.5c0-0.3-0.3-0.6-0.6-0.6H7.6c-0.3,0-0.6,0.3-0.6,0.6v2.5
					c0,0.3-0.3,0.6-0.6,0.6c-0.3,0-0.6-0.3-0.6-0.6v-2.5c0-1,0.8-1.8,1.8-1.8h6.3c1,0,1.8,0.8,1.8,1.8v2.5
					C15.7-175.8,15.4-175.5,15.1-175.5L15.1-175.5z"/>
			</g>
		</g>
	</g>
</g>
<g>
	<g>
		<path class="st0" d="M11,9.1c-0.3,0-0.6-0.2-0.6-0.6v-8C10.5,0.2,10.7,0,11,0c0.3,0,0.6,0.2,0.6,0.6v8C11.6,8.9,11.3,9.1,11,9.1
			L11,9.1z"/>
	</g>
	<g>
		<path class="st0" d="M11,24.9c-6.1,0-11-4.9-11-11C0,9.2,3,5,7.4,3.5C7.7,3.4,8,3.5,8.1,3.8C8.2,4.1,8,4.4,7.8,4.5
			c-4,1.4-6.7,5.1-6.7,9.4c0,5.5,4.4,9.9,9.9,9.9c5.5,0,9.9-4.4,9.9-9.9c0-4.2-2.7-8-6.7-9.4c-0.3-0.1-0.4-0.4-0.3-0.7
			c0.1-0.3,0.4-0.4,0.7-0.3C19.1,5,22,9.2,22,13.8C22,19.9,17.1,24.9,11,24.9L11,24.9z"/>
	</g>
</g>
</svg>
