<?xml version="1.0" encoding="utf-8"?>
<!-- Generator: Adobe Illustrator 22.0.1, SVG Export Plug-In . SVG Version: 6.00 Build 0)  -->
<svg version="1.1" id="Capa_1" xmlns="http://www.w3.org/2000/svg" xmlns:xlink="http://www.w3.org/1999/xlink" x="0px" y="0px"
	 viewBox="0 0 25.2 28.9" style="enable-background:new 0 0 25.2 28.9;" xml:space="preserve">
<style type="text/css">
	.st0{fill:#9DC44C;}
</style>
<g>
	<g>
		<path class="st0" d="M16.2,3.1v0.5c0.3,0,0.6,0.1,0.9,0.2c0.2,0.1,0.5,0.3,0.6,0.5c0.1,0.2,0.3,0.3,0.3,0.5
			c0.1,0.2,0.1,0.3,0.1,0.5c0,0.2-0.1,0.3-0.2,0.4c-0.1,0.1-0.3,0.2-0.4,0.2c-0.3,0-0.5-0.2-0.6-0.5c-0.1-0.4-0.4-0.7-0.7-0.8v2
			c0.4,0.1,0.7,0.2,0.9,0.3c0.2,0.1,0.4,0.2,0.6,0.4c0.2,0.2,0.3,0.4,0.5,0.6c0.1,0.2,0.2,0.5,0.2,0.8c0,0.4-0.1,0.7-0.3,1
			c-0.2,0.3-0.4,0.6-0.7,0.8c-0.3,0.2-0.7,0.3-1.2,0.4v0.5c0,0.2,0,0.3-0.1,0.4c0,0.1-0.1,0.1-0.2,0.1c-0.1,0-0.2,0-0.2-0.1
			c0-0.1-0.1-0.2-0.1-0.3v-0.6c-0.4,0-0.7-0.1-1-0.3c-0.3-0.1-0.5-0.3-0.7-0.5c-0.2-0.2-0.3-0.4-0.4-0.6c-0.1-0.2-0.1-0.4-0.1-0.6
			c0-0.2,0.1-0.3,0.2-0.4c0.1-0.1,0.3-0.2,0.4-0.2c0.1,0,0.3,0,0.4,0.1c0.1,0.1,0.2,0.2,0.2,0.3c0.1,0.3,0.2,0.5,0.2,0.6
			c0.1,0.1,0.2,0.3,0.3,0.4c0.1,0.1,0.3,0.2,0.5,0.3V7.5c-0.4-0.1-0.8-0.2-1.1-0.4C14.2,7,14,6.8,13.8,6.5c-0.2-0.3-0.3-0.6-0.3-1
			c0-0.5,0.2-1,0.5-1.3c0.3-0.3,0.8-0.5,1.5-0.6V3.1c0-0.3,0.1-0.4,0.3-0.4C16.1,2.7,16.2,2.8,16.2,3.1z M15.6,6.3V4.5
			c-0.3,0.1-0.5,0.2-0.6,0.3c-0.1,0.1-0.2,0.3-0.2,0.6c0,0.2,0.1,0.4,0.2,0.6C15.1,6.1,15.3,6.2,15.6,6.3z M16.2,7.7v2.1
			c0.3-0.1,0.6-0.2,0.7-0.4c0.2-0.2,0.3-0.4,0.3-0.7c0-0.3-0.1-0.5-0.3-0.6C16.8,7.9,16.5,7.8,16.2,7.7z"/>
	</g>
	<path class="st0" d="M9.6,24.7c0,0.7-0.6,1.3-1.3,1.3C7.6,26,7,25.4,7,24.7c0-0.7,0.6-1.3,1.3-1.3C9.1,23.4,9.6,24,9.6,24.7z"/>
	<g>
		<path class="st0" d="M13.7,22.3H3c-0.3,0-0.6-0.3-0.6-0.6v-14c0-0.3,0.3-0.6,0.6-0.6h4.3C7.7,7.1,8,7.4,8,7.7
			c0,0.3-0.3,0.6-0.6,0.6H3.6v12.7H13v-5.9c0-0.3,0.3-0.6,0.6-0.6c0.3,0,0.6,0.3,0.6,0.6v6.5C14.3,22.1,14,22.3,13.7,22.3L13.7,22.3
			z"/>
	</g>
	<g>
		<path class="st0" d="M16.1,28.9H0.6c-0.3,0-0.6-0.3-0.6-0.6V4.1c0-0.3,0.3-0.6,0.6-0.6h7.9v1.2H1.2v23h14.2V14h1.2v14.4
			C16.7,28.7,16.4,28.9,16.1,28.9L16.1,28.9z"/>
	</g>
	<g>
		<path class="st0" d="M10.6,16.4c-0.2,0-0.4,0-0.7,0c-0.3,0-0.5-0.2-0.6-0.5c-0.1-0.3,0.1-0.5,0.3-0.7c0.8-0.4,1.4-0.9,1.9-1.6
			c-2.8-1.3-4.6-3.7-4.6-6.3c0-4,4.1-7.3,9.1-7.3c5,0,9.1,3.3,9.1,7.3c0,4-4.1,7.3-9.1,7.3c-0.1,0-0.3,0-0.4,0
			C14.4,15.7,12.6,16.4,10.6,16.4L10.6,16.4z M16.1,1.2c-4.3,0-7.8,2.7-7.8,6c0,2.3,1.7,4.4,4.4,5.4c0.2,0.1,0.3,0.2,0.4,0.4
			c0.1,0.2,0.1,0.3,0,0.5c-0.1,0.2-0.1,0.3-0.2,0.4c-0.2,0.4-0.5,0.8-0.8,1.1c1.2-0.2,2.2-0.8,3-1.5c0.1-0.1,0.3-0.2,0.5-0.2
			c0.2,0,0.4,0,0.6,0c4.3,0,7.8-2.7,7.8-6C24,3.9,20.4,1.2,16.1,1.2L16.1,1.2z"/>
	</g>
</g>
</svg>
