<?xml version="1.0" encoding="utf-8"?>
<!-- Generator: Adobe Illustrator 22.0.1, SVG Export Plug-In . SVG Version: 6.00 Build 0)  -->
<svg version="1.1" id="Capa_1" xmlns="http://www.w3.org/2000/svg" xmlns:xlink="http://www.w3.org/1999/xlink" x="0px" y="0px"
	 viewBox="0 0 21.1 27.8" style="enable-background:new 0 0 21.1 27.8;" xml:space="preserve">
<style type="text/css">
	.st0{fill:#FFFFFF;}
	.st1{fill:#FDFEFF;}
</style>
<g>
	<g>
		<g>
			<path class="st0" d="M21.2,59.5H-1.7c-0.2,0-0.4-0.1-0.5-0.4c-0.1-0.2,0-0.4,0.2-0.6l11.5-7.8c0.2-0.1,0.4-0.1,0.6,0l11.5,7.8
				c0.2,0.1,0.3,0.4,0.2,0.6C21.6,59.4,21.4,59.5,21.2,59.5L21.2,59.5z M-0.1,58.5h19.7l-9.9-6.7L-0.1,58.5L-0.1,58.5z"/>
		</g>
		<g>
			<g>
				<path class="st0" d="M1.2,69.4c-0.3,0-0.5-0.2-0.5-0.5v-9.5c0-0.3,0.2-0.5,0.5-0.5s0.5,0.2,0.5,0.5v9.5
					C1.7,69.2,1.4,69.4,1.2,69.4L1.2,69.4z"/>
			</g>
			<g>
				<path class="st0" d="M18.3,69.4c-0.3,0-0.5-0.2-0.5-0.5v-9.5c0-0.3,0.2-0.5,0.5-0.5c0.3,0,0.5,0.2,0.5,0.5v9.5
					C18.8,69.2,18.6,69.4,18.3,69.4L18.3,69.4z"/>
			</g>
			<g>
				<path class="st0" d="M5.5,69.4c-0.3,0-0.5-0.2-0.5-0.5v-9.5c0-0.3,0.2-0.5,0.5-0.5S6,59.1,6,59.4v9.5C6,69.2,5.7,69.4,5.5,69.4
					L5.5,69.4z"/>
			</g>
			<g>
				<path class="st0" d="M9.7,69.4c-0.3,0-0.5-0.2-0.5-0.5v-9.5c0-0.3,0.2-0.5,0.5-0.5c0.3,0,0.5,0.2,0.5,0.5v9.5
					C10.2,69.2,10,69.4,9.7,69.4L9.7,69.4z"/>
			</g>
			<g>
				<path class="st0" d="M14,69.4c-0.3,0-0.5-0.2-0.5-0.5v-9.5c0-0.3,0.2-0.5,0.5-0.5s0.5,0.2,0.5,0.5v9.5
					C14.5,69.2,14.3,69.4,14,69.4L14,69.4z"/>
			</g>
		</g>
		<g>
			<path class="st0" d="M19.9,69.5H-0.4c-0.3,0-0.5-0.2-0.5-0.5c0-0.3,0.2-0.5,0.5-0.5h20.4c0.3,0,0.5,0.2,0.5,0.5
				C20.4,69.3,20.2,69.5,19.9,69.5L19.9,69.5z"/>
		</g>
		<g>
			<path class="st0" d="M21.9,72.4H-2.4c-0.3,0-0.5-0.2-0.5-0.5c0-0.3,0.2-0.5,0.5-0.5h24.4c0.3,0,0.5,0.2,0.5,0.5
				C22.4,72.2,22.2,72.4,21.9,72.4L21.9,72.4z"/>
		</g>
	</g>
</g>
<g>
	<path class="st0" d="M12-58H9.2c-0.7,0-1.3-0.6-1.3-1.3v-1.8c0-0.2-0.2-0.4-0.4-0.5L6.6-62c-0.3-0.1-0.5,0-0.6,0.1l-1.3,1.3
		c-0.5,0.5-1.4,0.5-1.9,0l-2-2c-0.2-0.2-0.4-0.6-0.4-0.9c0-0.4,0.1-0.7,0.4-0.9l1.3-1.3c0.1-0.1,0.2-0.4,0.1-0.6l-0.4-0.9
		c-0.1-0.2-0.3-0.4-0.5-0.4h-1.8c-0.7,0-1.3-0.6-1.3-1.3v-2.8c0-0.7,0.6-1.3,1.3-1.3h1.8c0.2,0,0.4-0.2,0.5-0.4l0.4-0.9
		c0.1-0.2,0.1-0.5-0.1-0.6l-1.3-1.3c-0.2-0.2-0.4-0.6-0.4-0.9c0-0.4,0.1-0.7,0.4-0.9l2-2c0.5-0.5,1.4-0.5,1.9,0L6-78.9
		c0.1,0.1,0.4,0.2,0.6,0.1l0.9-0.4c0.2-0.1,0.4-0.3,0.4-0.5v-1.8c0-0.7,0.6-1.3,1.3-1.3H12c0.7,0,1.3,0.6,1.3,1.3v1.8
		c0,0.2,0.2,0.4,0.4,0.5l0.9,0.4c0.3,0.1,0.5,0,0.6-0.1l1.3-1.3c0.5-0.5,1.4-0.5,1.9,0l2,2c0.2,0.2,0.4,0.6,0.4,0.9
		c0,0.4-0.1,0.7-0.4,0.9L19-75c-0.1,0.1-0.2,0.4-0.1,0.6l0.4,0.9c0.1,0.2,0.3,0.4,0.5,0.4h1.8c0.7,0,1.3,0.6,1.3,1.3v2.8
		c0,0.7-0.6,1.3-1.3,1.3h-1.8c-0.2,0-0.4,0.2-0.5,0.4L19-66.4c-0.1,0.2,0,0.5,0.1,0.6l1.3,1.3c0.2,0.2,0.4,0.6,0.4,0.9
		c0,0.4-0.1,0.7-0.4,0.9l-2,2c-0.5,0.5-1.4,0.5-1.9,0l-1.3-1.3c-0.1-0.1-0.4-0.2-0.6-0.1l-0.9,0.4c-0.2,0.1-0.4,0.3-0.4,0.5v1.8
		C13.3-58.6,12.7-58,12-58L12-58z M6.4-63.2c0.3,0,0.5,0.1,0.7,0.2l0.8,0.3c0.6,0.2,1.1,0.9,1.1,1.5v1.8c0,0.1,0.1,0.2,0.2,0.2H12
		c0.1,0,0.2-0.1,0.2-0.2v-1.8c0-0.7,0.5-1.3,1.1-1.5l0.8-0.3c0.5-0.2,1.4-0.1,1.8,0.3l1.3,1.3c0.1,0.1,0.2,0.1,0.3,0l2-2
		c0.1-0.1,0.1-0.1,0.1-0.2c0,0,0-0.1-0.1-0.2L18.3-65c-0.5-0.5-0.6-1.3-0.3-1.9l0.3-0.8c0.2-0.6,0.9-1.1,1.5-1.1h1.8
		c0.1,0,0.2-0.1,0.2-0.2v-2.8c0-0.1-0.1-0.2-0.2-0.2h-1.8c-0.7,0-1.3-0.5-1.5-1.1l-0.3-0.8c-0.3-0.6-0.2-1.4,0.3-1.8l1.3-1.3
		c0.1-0.1,0.1-0.1,0.1-0.2c0,0,0-0.1-0.1-0.2l-2-2c-0.1-0.1-0.2-0.1-0.3,0l-1.3,1.3c-0.5,0.5-1.3,0.6-1.9,0.3l-0.8-0.3
		c-0.6-0.2-1.1-0.9-1.1-1.5v-1.8c0-0.1-0.1-0.2-0.2-0.2H9.2c-0.1,0-0.2,0.1-0.2,0.2v1.8c0,0.7-0.5,1.3-1.1,1.5L7-77.8
		c-0.5,0.2-1.4,0.1-1.8-0.3l-1.3-1.3c-0.1-0.1-0.2-0.1-0.3,0l-2,2c-0.1,0.1-0.1,0.1-0.1,0.2c0,0,0,0.1,0.1,0.2l1.3,1.3
		c0.5,0.5,0.6,1.3,0.3,1.9l-0.3,0.8C2.7-72.5,2-72,1.3-72h-1.8c-0.1,0-0.2,0.1-0.2,0.2v2.8c0,0.1,0.1,0.2,0.2,0.2h1.8
		c0.7,0,1.3,0.5,1.5,1.1l0.3,0.8c0.3,0.6,0.2,1.4-0.3,1.8l-1.3,1.3c-0.1,0.1-0.1,0.1-0.1,0.2c0,0,0,0.1,0.1,0.2l2,2
		c0.1,0.1,0.2,0.1,0.3,0l1.3-1.3C5.5-63,5.9-63.2,6.4-63.2L6.4-63.2z M10.6-66.1c-2.4,0-4.3-1.9-4.3-4.3c0-2.4,1.9-4.3,4.3-4.3
		c2.4,0,4.3,1.9,4.3,4.3C14.8-68,12.9-66.1,10.6-66.1L10.6-66.1z M10.6-73.6c-1.8,0-3.2,1.4-3.2,3.2c0,1.8,1.4,3.2,3.2,3.2
		c1.8,0,3.2-1.4,3.2-3.2C13.7-72.2,12.3-73.6,10.6-73.6L10.6-73.6z"/>
</g>
<g>
	<g>
		<g>
			<g>
				<g>
					<path class="st1" d="M7.5,16.7c-0.3,0-0.5-0.2-0.5-0.5l-0.2-1.7l-1.7,0c-0.3,0-0.5-0.2-0.5-0.5c0-0.3,0.2-0.5,0.5-0.5l2.2,0
						c0.3,0,0.5,0.2,0.5,0.5L8,16.1c0,0.1,0,0.3-0.1,0.4C7.8,16.6,7.7,16.6,7.5,16.7L7.5,16.7z M7.5,16.1v0.3V16.1L7.5,16.1
						L7.5,16.1z M5.1,14L5.1,14C5.1,14,5.1,14,5.1,14z"/>
				</g>
			</g>
			<g>
				<g>
					<path class="st1" d="M10.5,23.5c-1.5,0-2.9-0.6-4-1.7c-1.1-1.1-1.7-2.5-1.7-4c0-1.5,0.6-2.9,1.7-4c0.1-0.1,0.2-0.2,0.4-0.2
						c0,0,0,0,0,0c0.1,0,0.3,0.1,0.4,0.2c0.2,0.2,0.2,0.6,0,0.8c-0.9,0.9-1.3,2-1.3,3.2c0,1.2,0.5,2.4,1.3,3.2
						c1.1,1.1,2.7,1.6,4.2,1.2c0.3-0.1,0.6,0.1,0.7,0.4c0,0.1,0,0.3-0.1,0.4c-0.1,0.1-0.2,0.2-0.3,0.2
						C11.3,23.5,10.9,23.5,10.5,23.5z"/>
				</g>
			</g>
			<g>
				<g>
					<path class="st1" d="M14.2,21.9c-0.1,0-0.3-0.1-0.4-0.2c-0.1-0.1-0.2-0.2-0.2-0.4c0-0.1,0.1-0.3,0.2-0.4c1.8-1.8,1.8-4.7,0-6.5
						c-1.1-1.1-2.7-1.6-4.2-1.2c-0.1,0-0.3,0-0.4-0.1C9,13.2,9,13,8.9,12.9s0-0.3,0.1-0.4c0.1-0.1,0.2-0.2,0.3-0.2
						c1.9-0.4,3.9,0.1,5.2,1.5c2.2,2.2,2.2,5.8,0,8C14.5,21.9,14.3,21.9,14.2,21.9z"/>
				</g>
			</g>
			<g>
				<g>
					<path class="st1" d="M16,22.3l-2.2,0c-0.3,0-0.5-0.2-0.5-0.5l-0.2-2.2c0-0.1,0-0.3,0.1-0.4c0.1-0.1,0.2-0.2,0.4-0.2
						c0.1,0,0.3,0,0.4,0.1c0.1,0.1,0.2,0.2,0.2,0.4l0.2,1.7l1.7,0c0.3,0,0.5,0.2,0.5,0.5S16.3,22.3,16,22.3z M16,21.7
						C16,21.7,16,21.7,16,21.7L16,21.7z"/>
				</g>
			</g>
		</g>
	</g>
	<g>
		<g>
			<g>
				<path class="st1" d="M19.3,27.8H1.8C0.8,27.8,0,27,0,26V8c0-1,0.8-1.8,1.8-1.8h17.5c1,0,1.8,0.8,1.8,1.8v18
					C21.1,27,20.3,27.8,19.3,27.8L19.3,27.8z M1.8,7.4C1.5,7.4,1.2,7.7,1.2,8v18c0,0.3,0.3,0.6,0.6,0.6h17.5c0.3,0,0.6-0.3,0.6-0.6
					V8c0-0.3-0.3-0.6-0.6-0.6H1.8L1.8,7.4z"/>
			</g>
		</g>
		<g>
			<g>
				<path class="st1" d="M14.9,4.9c-0.3,0-0.6-0.3-0.6-0.6V1.8c0-0.3-0.3-0.6-0.6-0.6H7.4c-0.3,0-0.6,0.3-0.6,0.6v2.5
					c0,0.3-0.3,0.6-0.6,0.6S5.6,4.7,5.6,4.3V1.8c0-1,0.8-1.8,1.8-1.8h6.3c1,0,1.8,0.8,1.8,1.8v2.5C15.5,4.7,15.2,4.9,14.9,4.9
					L14.9,4.9z"/>
			</g>
		</g>
	</g>
</g>
<g>
	<g>
		<path class="st0" d="M10.8,189.6c-0.3,0-0.6-0.2-0.6-0.6v-8c0-0.3,0.2-0.6,0.6-0.6c0.3,0,0.6,0.2,0.6,0.6v8
			C11.4,189.3,11.1,189.6,10.8,189.6L10.8,189.6z"/>
	</g>
	<g>
		<path class="st0" d="M10.8,205.3c-6.1,0-11-4.9-11-11c0-4.7,3-8.9,7.4-10.4c0.3-0.1,0.6,0.1,0.7,0.3c0.1,0.3-0.1,0.6-0.3,0.7
			c-4,1.4-6.7,5.1-6.7,9.4c0,5.5,4.4,9.9,9.9,9.9c5.5,0,9.9-4.4,9.9-9.9c0-4.2-2.7-8-6.7-9.4c-0.3-0.1-0.4-0.4-0.3-0.7
			c0.1-0.3,0.4-0.4,0.7-0.3c4.4,1.5,7.4,5.7,7.4,10.4C21.8,200.4,16.9,205.3,10.8,205.3L10.8,205.3z"/>
	</g>
</g>
</svg>
