<?xml version="1.0" encoding="utf-8"?>
<!-- Generator: Adobe Illustrator 22.0.1, SVG Export Plug-In . SVG Version: 6.00 Build 0)  -->
<svg version="1.1" id="Capa_1" xmlns="http://www.w3.org/2000/svg" xmlns:xlink="http://www.w3.org/1999/xlink" x="0px" y="0px"
	 viewBox="0 0 92.5 92.5" style="enable-background:new 0 0 92.5 92.5;" xml:space="preserve">
<style type="text/css">
	.st0{fill:#9DC44C;}
</style>
<g>
	<g>
		<path class="st0" d="M46.2,92.5c-12.4,0-24-4.8-32.7-13.5c-18-18-18-47.4,0-65.4C22.3,4.8,33.9,0,46.2,0c12.4,0,24,4.8,32.7,13.5
			c18,18,18,47.4,0,65.4C70.2,87.7,58.6,92.5,46.2,92.5L46.2,92.5z M46.2,4.1C35,4.1,24.4,8.5,16.4,16.4C0,32.9,0,59.6,16.4,76.1
			c8,8,18.5,12.3,29.8,12.3c11.3,0,21.9-4.4,29.8-12.4c16.4-16.4,16.4-43.2,0-59.6C68.1,8.5,57.5,4.1,46.2,4.1L46.2,4.1z"/>
	</g>
	<g>
		<path class="st0" d="M46.2,92.5L46.2,92.5c-12.4,0-24-4.8-32.7-13.5c-1.1-1.1-2.2-2.3-3.2-3.5c-0.5-0.7-0.6-1.6-0.2-2.3
			c0.6-1.1,1.8-2.7,3.5-3.6c6.8-3.2,13.9-5.4,21.4-6.5l-0.4-2.7c-1.9-1.4-3.1-3.3-3.3-5.1c-0.1-1-0.2-2-0.3-3
			c-1.6-0.4-2.7-1.6-2.9-3.1l-0.8-8c-0.2-1.5,0.7-2.9,2-3.6l-0.4-3.2c-0.3-2.7-0.8-8.3,3.6-12.2c3.1-3,8-4.8,13.6-4.8
			c5.5,0,10.5,1.8,13.6,4.9c4.3,3.8,3.8,9.4,3.5,12.1L63,37.7c1.4,0.7,2.1,2,2,3.5l-0.8,8c-0.2,1.6-1.3,2.8-2.9,3.1l-0.3,3
			c-0.1,1.7-1.4,3.6-3.2,5.1L57.4,63c7.5,1.1,14.7,3.3,21.4,6.5c1.9,1,3,2.5,3.6,3.7c0.4,0.7,0.3,1.6-0.2,2.3
			c-1,1.2-2.1,2.4-3.2,3.5C70.2,87.7,58.6,92.5,46.2,92.5L46.2,92.5z M14.5,74c0.6,0.7,1.3,1.4,1.9,2.1c8,8,18.5,12.3,29.8,12.3
			c11.3,0,21.9-4.4,29.8-12.4c0.7-0.7,1.3-1.3,1.9-2c-0.3-0.4-0.7-0.7-1.1-0.9c-6.8-3.2-14.3-5.4-22.1-6.3c-0.5-0.1-1-0.3-1.4-0.8
			c-0.3-0.4-0.5-1-0.4-1.5l0.8-5.6c0.1-0.6,0.4-1.1,0.9-1.4c1.4-0.9,2.1-2.1,2.2-2.6l0.6-5.3c0.1-0.8,0.6-1.5,1.4-1.7
			c0.4-0.1,0.9-0.1,1.3,0l0.7-6.3c-0.5,0.1-1,0-1.4-0.3c-0.6-0.4-0.8-1.2-0.7-2l0.6-5.3c0.2-2.3,0.6-6.2-2.2-8.7
			c-2.4-2.4-6.5-3.8-10.8-3.8s-8.4,1.4-10.8,3.7c-2.9,2.6-2.5,6.5-2.3,8.8l0.6,5.3c0.1,0.8-0.3,1.5-0.9,1.9
			c-0.4,0.3-0.8,0.4-1.3,0.3l0.7,6.4c0.4-0.3,0.9-0.3,1.5-0.1c0.8,0.2,1.1,1,1.2,1.8c0.2,1.7,0.4,3.5,0.6,5.2
			c0.1,0.6,0.8,1.7,2.2,2.6c0.5,0.3,0.8,0.8,0.9,1.4l0.8,5.6c0.1,0.5-0.1,1.1-0.4,1.5c-0.3,0.4-0.8,0.7-1.4,0.8
			c-7.8,0.9-15.3,3.1-22.2,6.4C15.2,73.4,14.8,73.7,14.5,74L14.5,74z"/>
	</g>
</g>
</svg>
