<?xml version="1.0" encoding="utf-8"?>
<!-- Generator: Adobe Illustrator 22.0.1, SVG Export Plug-In . SVG Version: 6.00 Build 0)  -->
<svg version="1.1" id="Capa_1" xmlns="http://www.w3.org/2000/svg" xmlns:xlink="http://www.w3.org/1999/xlink" x="0px" y="0px"
	 viewBox="0 0 63.9 54.8" style="enable-background:new 0 0 63.9 54.8;" xml:space="preserve">
<style type="text/css">
	.st0{fill:#CFD0D2;}
</style>
<g>
	<g>
		<path class="st0" d="M60.9,22.3H3.1c-0.6,0-1-0.4-1.2-0.9c-0.2-0.5,0-1.1,0.5-1.4L31.3,0.2c0.4-0.3,1-0.3,1.4,0L61.6,20
			c0.5,0.3,0.7,0.9,0.5,1.4C61.9,21.9,61.4,22.3,60.9,22.3L60.9,22.3z M7.1,19.8h49.7L32,2.8L7.1,19.8L7.1,19.8z"/>
	</g>
	<g>
		<g>
			<path class="st0" d="M10.3,47.2c-0.7,0-1.3-0.6-1.3-1.3V22c0-0.7,0.6-1.3,1.3-1.3s1.3,0.6,1.3,1.3V46
				C11.6,46.7,11,47.2,10.3,47.2L10.3,47.2z"/>
		</g>
		<g>
			<path class="st0" d="M53.6,47.2c-0.7,0-1.3-0.6-1.3-1.3V22c0-0.7,0.6-1.3,1.3-1.3s1.3,0.6,1.3,1.3V46
				C54.9,46.7,54.3,47.2,53.6,47.2L53.6,47.2z"/>
		</g>
		<g>
			<path class="st0" d="M21.2,47.2c-0.7,0-1.3-0.6-1.3-1.3V22c0-0.7,0.6-1.3,1.3-1.3c0.7,0,1.3,0.6,1.3,1.3V46
				C22.4,46.7,21.9,47.2,21.2,47.2L21.2,47.2z"/>
		</g>
		<g>
			<path class="st0" d="M32,47.2c-0.7,0-1.3-0.6-1.3-1.3V22c0-0.7,0.6-1.3,1.3-1.3c0.7,0,1.3,0.6,1.3,1.3V46
				C33.2,46.7,32.7,47.2,32,47.2L32,47.2z"/>
		</g>
		<g>
			<path class="st0" d="M42.8,47.2c-0.7,0-1.3-0.6-1.3-1.3V22c0-0.7,0.6-1.3,1.3-1.3c0.7,0,1.3,0.6,1.3,1.3V46
				C44,46.7,43.5,47.2,42.8,47.2L42.8,47.2z"/>
		</g>
	</g>
	<g>
		<path class="st0" d="M57.6,47.5H6.3C5.6,47.5,5,47,5,46.3C5,45.6,5.6,45,6.3,45h51.3c0.7,0,1.3,0.6,1.3,1.3
			C58.9,47,58.3,47.5,57.6,47.5L57.6,47.5z"/>
	</g>
	<g>
		<path class="st0" d="M62.7,54.8H1.3c-0.7,0-1.3-0.6-1.3-1.3c0-0.7,0.6-1.3,1.3-1.3h61.4c0.7,0,1.3,0.6,1.3,1.3
			C63.9,54.2,63.4,54.8,62.7,54.8L62.7,54.8z"/>
	</g>
</g>
</svg>
