<?xml version="1.0" encoding="utf-8"?>
<!-- Generator: Adobe Illustrator 22.0.1, SVG Export Plug-In . SVG Version: 6.00 Build 0)  -->
<svg version="1.1" id="Capa_1" xmlns="http://www.w3.org/2000/svg" xmlns:xlink="http://www.w3.org/1999/xlink" x="0px" y="0px"
	 viewBox="0 0 37.3 32" style="enable-background:new 0 0 37.3 32;" xml:space="preserve">
<style type="text/css">
	.st0{fill:#9DC44C;}
</style>
<g>
	<g>
		<path class="st0" d="M35.6,13H1.8c-0.3,0-0.6-0.2-0.7-0.5c-0.1-0.3,0-0.6,0.3-0.8L18.3,0.1c0.3-0.2,0.6-0.2,0.8,0L36,11.7
			c0.3,0.2,0.4,0.5,0.3,0.8C36.2,12.8,35.9,13,35.6,13L35.6,13z M4.2,11.6h29L18.7,1.6L4.2,11.6L4.2,11.6z"/>
	</g>
	<g>
		<g>
			<path class="st0" d="M6,27.6c-0.4,0-0.7-0.3-0.7-0.7v-14c0-0.4,0.3-0.7,0.7-0.7c0.4,0,0.7,0.3,0.7,0.7v14
				C6.8,27.2,6.4,27.6,6,27.6L6,27.6z"/>
		</g>
		<g>
			<path class="st0" d="M31.3,27.6c-0.4,0-0.7-0.3-0.7-0.7v-14c0-0.4,0.3-0.7,0.7-0.7s0.7,0.3,0.7,0.7v14
				C32,27.2,31.7,27.6,31.3,27.6L31.3,27.6z"/>
		</g>
		<g>
			<path class="st0" d="M12.4,27.6c-0.4,0-0.7-0.3-0.7-0.7v-14c0-0.4,0.3-0.7,0.7-0.7s0.7,0.3,0.7,0.7v14
				C13.1,27.2,12.8,27.6,12.4,27.6L12.4,27.6z"/>
		</g>
		<g>
			<path class="st0" d="M18.7,27.6c-0.4,0-0.7-0.3-0.7-0.7v-14c0-0.4,0.3-0.7,0.7-0.7c0.4,0,0.7,0.3,0.7,0.7v14
				C19.4,27.2,19.1,27.6,18.7,27.6L18.7,27.6z"/>
		</g>
		<g>
			<path class="st0" d="M25,27.6c-0.4,0-0.7-0.3-0.7-0.7v-14c0-0.4,0.3-0.7,0.7-0.7s0.7,0.3,0.7,0.7v14C25.7,27.2,25.4,27.6,25,27.6
				L25,27.6z"/>
		</g>
	</g>
	<g>
		<path class="st0" d="M33.7,27.8h-30c-0.4,0-0.7-0.3-0.7-0.7c0-0.4,0.3-0.7,0.7-0.7h30c0.4,0,0.7,0.3,0.7,0.7
			C34.4,27.4,34.1,27.8,33.7,27.8L33.7,27.8z"/>
	</g>
	<g>
		<path class="st0" d="M36.6,32H0.7C0.3,32,0,31.7,0,31.2c0-0.4,0.3-0.7,0.7-0.7h35.9c0.4,0,0.7,0.3,0.7,0.7
			C37.3,31.7,37,32,36.6,32L36.6,32z"/>
	</g>
</g>
</svg>
