<?xml version="1.0" encoding="utf-8"?>
<!-- Generator: Adobe Illustrator 22.0.1, SVG Export Plug-In . SVG Version: 6.00 Build 0)  -->
<svg version="1.1" id="Capa_1" xmlns="http://www.w3.org/2000/svg" xmlns:xlink="http://www.w3.org/1999/xlink" x="0px" y="0px"
	 viewBox="0 0 39.6 39.6" style="enable-background:new 0 0 39.6 39.6;" xml:space="preserve">
<style type="text/css">
	.st0{fill:#808082;}
</style>
<g>
	<g>
		<path class="st0" d="M19.8,39.6C8.9,39.6,0,30.7,0,19.8C0,8.9,8.9,0,19.8,0c10.9,0,19.8,8.9,19.8,19.8
			C39.6,30.7,30.7,39.6,19.8,39.6L19.8,39.6z M19.8,0.9C9.4,0.9,0.9,9.4,0.9,19.8c0,10.4,8.5,18.9,18.9,18.9
			c10.4,0,18.9-8.5,18.9-18.9C38.8,9.4,30.3,0.9,19.8,0.9L19.8,0.9z"/>
	</g>
</g>
<g>
	<g>
		<path class="st0" d="M20.1,14v0.4c0.3,0,0.5,0.1,0.7,0.2c0.2,0.1,0.4,0.2,0.5,0.4c0.1,0.1,0.2,0.3,0.3,0.4
			c0.1,0.1,0.1,0.3,0.1,0.4c0,0.1,0,0.2-0.1,0.3c-0.1,0.1-0.2,0.1-0.3,0.1c-0.3,0-0.4-0.1-0.5-0.4c-0.1-0.3-0.3-0.5-0.6-0.6v1.6
			c0.3,0.1,0.6,0.2,0.8,0.2c0.2,0.1,0.4,0.2,0.5,0.3c0.2,0.1,0.3,0.3,0.4,0.5c0.1,0.2,0.1,0.4,0.1,0.6c0,0.3-0.1,0.6-0.2,0.8
			c-0.1,0.3-0.3,0.5-0.6,0.6c-0.3,0.2-0.6,0.3-1,0.3v1c0,0.2,0,0.3,0,0.3c0,0.1-0.1,0.1-0.2,0.1c-0.1,0-0.2,0-0.2-0.1
			c0-0.1-0.1-0.1-0.1-0.3v-1c-0.3,0-0.6-0.1-0.8-0.2c-0.2-0.1-0.4-0.2-0.6-0.4c-0.1-0.2-0.3-0.3-0.3-0.5c-0.1-0.2-0.1-0.3-0.1-0.5
			c0-0.1,0-0.2,0.1-0.3c0.1-0.1,0.2-0.1,0.4-0.1c0.1,0,0.2,0,0.3,0.1c0.1,0.1,0.1,0.1,0.2,0.2c0.1,0.2,0.1,0.4,0.2,0.5
			c0.1,0.1,0.1,0.2,0.2,0.3c0.1,0.1,0.2,0.2,0.4,0.2v-1.8c-0.3-0.1-0.6-0.2-0.9-0.3c-0.2-0.1-0.4-0.3-0.6-0.5
			c-0.1-0.2-0.2-0.5-0.2-0.8c0-0.4,0.1-0.8,0.4-1.1c0.3-0.3,0.7-0.4,1.2-0.5V14c0-0.2,0.1-0.3,0.2-0.3C20,13.7,20.1,13.8,20.1,14z
			 M19.6,16.6v-1.5c-0.2,0.1-0.4,0.1-0.5,0.3c-0.1,0.1-0.2,0.3-0.2,0.5c0,0.2,0.1,0.4,0.2,0.5C19.2,16.4,19.4,16.5,19.6,16.6z
			 M20.1,17.8v1.7c0.3-0.1,0.5-0.2,0.6-0.3c0.1-0.2,0.2-0.3,0.2-0.5c0-0.2-0.1-0.4-0.2-0.5C20.5,18,20.3,17.8,20.1,17.8z"/>
	</g>
	<g>
		<path class="st0" d="M29.3,23.2h-19c-0.2,0-0.4-0.2-0.4-0.4V12.4c0-0.2,0.2-0.4,0.4-0.4h19c0.2,0,0.4,0.2,0.4,0.4v10.4
			C29.7,23.1,29.6,23.2,29.3,23.2L29.3,23.2z M10.7,22.4h18.2v-9.6H10.7V22.4L10.7,22.4z"/>
	</g>
	<g>
		<g>
			<g>
				<path class="st0" d="M17.1,15h-4.5c-0.2,0-0.4-0.2-0.4-0.4c0-0.2,0.2-0.4,0.4-0.4h4.5c0.2,0,0.4,0.2,0.4,0.4
					C17.5,14.8,17.3,15,17.1,15L17.1,15z"/>
			</g>
			<g>
				<path class="st0" d="M27,15h-4.5c-0.2,0-0.4-0.2-0.4-0.4c0-0.2,0.2-0.4,0.4-0.4H27c0.2,0,0.4,0.2,0.4,0.4
					C27.4,14.8,27.3,15,27,15L27,15z"/>
			</g>
		</g>
		<g>
			<g>
				<path class="st0" d="M17.1,21.1h-4.5c-0.2,0-0.4-0.2-0.4-0.4c0-0.2,0.2-0.4,0.4-0.4h4.5c0.2,0,0.4,0.2,0.4,0.4
					C17.5,20.9,17.3,21.1,17.1,21.1L17.1,21.1z"/>
			</g>
			<g>
				<path class="st0" d="M27,21.1h-4.5c-0.2,0-0.4-0.2-0.4-0.4c0-0.2,0.2-0.4,0.4-0.4H27c0.2,0,0.4,0.2,0.4,0.4
					C27.4,20.9,27.3,21.1,27,21.1L27,21.1z"/>
			</g>
		</g>
	</g>
	<g>
		<path class="st0" d="M28.9,25.4H10.5c-0.2,0-0.4-0.2-0.4-0.4c0-0.2,0.2-0.4,0.4-0.4h18.4c0.2,0,0.4,0.2,0.4,0.4
			C29.3,25.2,29.1,25.4,28.9,25.4L28.9,25.4z"/>
	</g>
	<g>
		<path class="st0" d="M28.9,27.6H10.5c-0.2,0-0.4-0.2-0.4-0.4c0-0.2,0.2-0.4,0.4-0.4h18.4c0.2,0,0.4,0.2,0.4,0.4
			C29.3,27.4,29.1,27.6,28.9,27.6L28.9,27.6z"/>
	</g>
</g>
</svg>
