<?xml version="1.0" encoding="utf-8"?>
<!-- Generator: Adobe Illustrator 22.0.1, SVG Export Plug-In . SVG Version: 6.00 Build 0)  -->
<svg version="1.1" id="Capa_1" xmlns="http://www.w3.org/2000/svg" xmlns:xlink="http://www.w3.org/1999/xlink" x="0px" y="0px"
	 viewBox="0 0 24.8 24.8" style="enable-background:new 0 0 24.8 24.8;" xml:space="preserve">
<style type="text/css">
	.st0{fill:#FFFFFF;}
	.st1{fill:#FDFEFF;}
</style>
<g>
	<g>
		<g>
			<path class="st0" d="M23,142.3H0.1c-0.2,0-0.4-0.1-0.5-0.4c-0.1-0.2,0-0.4,0.2-0.6l11.5-7.8c0.2-0.1,0.4-0.1,0.6,0l11.5,7.8
				c0.2,0.1,0.3,0.4,0.2,0.6C23.5,142.2,23.3,142.3,23,142.3L23,142.3z M1.7,141.3h19.7l-9.9-6.7L1.7,141.3L1.7,141.3z"/>
		</g>
		<g>
			<g>
				<path class="st0" d="M3,152.2c-0.3,0-0.5-0.2-0.5-0.5v-9.5c0-0.3,0.2-0.5,0.5-0.5s0.5,0.2,0.5,0.5v9.5
					C3.5,152,3.3,152.2,3,152.2L3,152.2z"/>
			</g>
			<g>
				<path class="st0" d="M20.1,152.2c-0.3,0-0.5-0.2-0.5-0.5v-9.5c0-0.3,0.2-0.5,0.5-0.5s0.5,0.2,0.5,0.5v9.5
					C20.6,152,20.4,152.2,20.1,152.2L20.1,152.2z"/>
			</g>
			<g>
				<path class="st0" d="M7.3,152.2c-0.3,0-0.5-0.2-0.5-0.5v-9.5c0-0.3,0.2-0.5,0.5-0.5c0.3,0,0.5,0.2,0.5,0.5v9.5
					C7.8,152,7.5,152.2,7.3,152.2L7.3,152.2z"/>
			</g>
			<g>
				<path class="st0" d="M11.6,152.2c-0.3,0-0.5-0.2-0.5-0.5v-9.5c0-0.3,0.2-0.5,0.5-0.5c0.3,0,0.5,0.2,0.5,0.5v9.5
					C12.1,152,11.8,152.2,11.6,152.2L11.6,152.2z"/>
			</g>
			<g>
				<path class="st0" d="M15.9,152.2c-0.3,0-0.5-0.2-0.5-0.5v-9.5c0-0.3,0.2-0.5,0.5-0.5s0.5,0.2,0.5,0.5v9.5
					C16.4,152,16.1,152.2,15.9,152.2L15.9,152.2z"/>
			</g>
		</g>
		<g>
			<path class="st0" d="M21.8,152.3H1.4c-0.3,0-0.5-0.2-0.5-0.5c0-0.3,0.2-0.5,0.5-0.5h20.4c0.3,0,0.5,0.2,0.5,0.5
				C22.3,152.1,22,152.3,21.8,152.3L21.8,152.3z"/>
		</g>
		<g>
			<path class="st0" d="M23.8,155.2H-0.6c-0.3,0-0.5-0.2-0.5-0.5c0-0.3,0.2-0.5,0.5-0.5h24.4c0.3,0,0.5,0.2,0.5,0.5
				C24.3,155,24,155.2,23.8,155.2L23.8,155.2z"/>
		</g>
	</g>
</g>
<g>
	<path class="st0" d="M13.8,24.8H11c-0.7,0-1.3-0.6-1.3-1.3v-1.8c0-0.2-0.2-0.4-0.4-0.5l-0.9-0.4c-0.3-0.1-0.5,0-0.6,0.1l-1.3,1.3
		c-0.5,0.5-1.4,0.5-1.9,0l-2-2c-0.2-0.2-0.4-0.6-0.4-0.9c0-0.4,0.1-0.7,0.4-0.9L3.9,17c0.1-0.1,0.2-0.4,0.1-0.6l-0.4-0.9
		c-0.1-0.2-0.3-0.4-0.5-0.4H1.3c-0.7,0-1.3-0.6-1.3-1.3V11c0-0.7,0.6-1.3,1.3-1.3h1.8c0.2,0,0.4-0.2,0.5-0.4L4,8.4
		c0.1-0.2,0.1-0.5-0.1-0.6L2.6,6.5C2.4,6.3,2.2,5.9,2.2,5.6c0-0.4,0.1-0.7,0.4-0.9l2-2c0.5-0.5,1.4-0.5,1.9,0l1.3,1.3
		C7.9,4,8.2,4.1,8.4,4l0.9-0.4c0.2-0.1,0.4-0.3,0.4-0.5V1.3C9.6,0.6,10.2,0,11,0h2.8c0.7,0,1.3,0.6,1.3,1.3v1.8
		c0,0.2,0.2,0.4,0.4,0.5L16.3,4c0.3,0.1,0.5,0,0.6-0.1l1.3-1.3c0.5-0.5,1.4-0.5,1.9,0l2,2c0.2,0.2,0.4,0.6,0.4,0.9
		c0,0.4-0.1,0.7-0.4,0.9l-1.3,1.3c-0.1,0.1-0.2,0.4-0.1,0.6l0.4,0.9c0.1,0.2,0.3,0.4,0.5,0.4h1.8c0.7,0,1.3,0.6,1.3,1.3v2.8
		c0,0.7-0.6,1.3-1.3,1.3h-1.8c-0.2,0-0.4,0.2-0.5,0.4l-0.4,0.9c-0.1,0.2,0,0.5,0.1,0.6l1.3,1.3c0.2,0.2,0.4,0.6,0.4,0.9
		c0,0.4-0.1,0.7-0.4,0.9l-2,2c-0.5,0.5-1.4,0.5-1.9,0L17,20.9c-0.1-0.1-0.4-0.2-0.6-0.1l-0.9,0.4c-0.2,0.1-0.4,0.3-0.4,0.5v1.8
		C15.1,24.2,14.5,24.8,13.8,24.8L13.8,24.8z M8.2,19.6c0.3,0,0.5,0.1,0.7,0.2l0.8,0.3c0.6,0.2,1.1,0.9,1.1,1.5v1.8
		c0,0.1,0.1,0.2,0.2,0.2h2.8c0.1,0,0.2-0.1,0.2-0.2v-1.8c0-0.7,0.5-1.3,1.1-1.5l0.8-0.3c0.5-0.2,1.4-0.1,1.8,0.3l1.3,1.3
		c0.1,0.1,0.2,0.1,0.3,0l2-2c0.1-0.1,0.1-0.1,0.1-0.2c0,0,0-0.1-0.1-0.2l-1.3-1.3c-0.5-0.5-0.6-1.3-0.3-1.9l0.3-0.8
		c0.2-0.6,0.9-1.1,1.5-1.1h1.8c0.1,0,0.2-0.1,0.2-0.2V11c0-0.1-0.1-0.2-0.2-0.2h-1.8c-0.7,0-1.3-0.5-1.5-1.1l-0.3-0.8
		c-0.3-0.6-0.2-1.4,0.3-1.8l1.3-1.3c0.1-0.1,0.1-0.1,0.1-0.2c0,0,0-0.1-0.1-0.2l-2-2c-0.1-0.1-0.2-0.1-0.3,0l-1.3,1.3
		c-0.5,0.5-1.3,0.6-1.9,0.3l-0.8-0.3C14.5,4.5,14,3.8,14,3.2V1.3c0-0.1-0.1-0.2-0.2-0.2H11c-0.1,0-0.2,0.1-0.2,0.2v1.8
		c0,0.7-0.5,1.3-1.1,1.5L8.9,5C8.4,5.3,7.5,5.2,7,4.7L5.7,3.4c-0.1-0.1-0.2-0.1-0.3,0l-2,2C3.3,5.5,3.3,5.5,3.3,5.6
		c0,0,0,0.1,0.1,0.2L4.7,7C5.2,7.5,5.3,8.3,5,8.9L4.7,9.7c-0.2,0.6-0.9,1.1-1.5,1.1H1.3c-0.1,0-0.2,0.1-0.2,0.2v2.8
		c0,0.1,0.1,0.2,0.2,0.2h1.8c0.7,0,1.3,0.5,1.5,1.1L5,15.9c0.3,0.6,0.2,1.4-0.3,1.8l-1.3,1.3c-0.1,0.1-0.1,0.1-0.1,0.2
		c0,0,0,0.1,0.1,0.2l2,2c0.1,0.1,0.2,0.1,0.3,0L7,20.1C7.3,19.8,7.7,19.6,8.2,19.6L8.2,19.6z M12.4,16.7c-2.4,0-4.3-1.9-4.3-4.3
		c0-2.4,1.9-4.3,4.3-4.3c2.4,0,4.3,1.9,4.3,4.3C16.7,14.7,14.7,16.7,12.4,16.7L12.4,16.7z M12.4,9.2c-1.8,0-3.2,1.4-3.2,3.2
		s1.4,3.2,3.2,3.2c1.8,0,3.2-1.4,3.2-3.2S14.1,9.2,12.4,9.2L12.4,9.2z"/>
</g>
<g>
	<g>
		<g>
			<g>
				<g>
					<path class="st1" d="M9.3,99.5c-0.3,0-0.5-0.2-0.5-0.5l-0.2-1.7l-1.7,0c-0.3,0-0.5-0.2-0.5-0.5c0-0.3,0.2-0.5,0.5-0.5l2.2,0
						c0.3,0,0.5,0.2,0.5,0.5l0.2,2.1c0,0.1,0,0.3-0.1,0.4C9.6,99.4,9.5,99.4,9.3,99.5L9.3,99.5z M9.3,98.9v0.3V98.9L9.3,98.9
						L9.3,98.9z M6.9,96.8L6.9,96.8C6.9,96.8,6.9,96.8,6.9,96.8z"/>
				</g>
			</g>
			<g>
				<g>
					<path class="st1" d="M12.3,106.3c-1.5,0-2.9-0.6-4-1.7c-1.1-1.1-1.7-2.5-1.7-4c0-1.5,0.6-2.9,1.7-4c0.1-0.1,0.2-0.2,0.4-0.2
						c0,0,0,0,0,0c0.1,0,0.3,0.1,0.4,0.2c0.2,0.2,0.2,0.6,0,0.8c-0.9,0.9-1.3,2-1.3,3.2s0.5,2.4,1.3,3.2c1.1,1.1,2.7,1.6,4.2,1.2
						c0.3-0.1,0.6,0.1,0.7,0.4c0,0.1,0,0.3-0.1,0.4c-0.1,0.1-0.2,0.2-0.3,0.2C13.2,106.3,12.7,106.3,12.3,106.3z"/>
				</g>
			</g>
			<g>
				<g>
					<path class="st1" d="M16,104.7c-0.1,0-0.3-0.1-0.4-0.2c-0.1-0.1-0.2-0.2-0.2-0.4c0-0.1,0.1-0.3,0.2-0.4c1.8-1.8,1.8-4.7,0-6.5
						c-1.1-1.1-2.7-1.6-4.2-1.2c-0.1,0-0.3,0-0.4-0.1c-0.1-0.1-0.2-0.2-0.2-0.3c0-0.1,0-0.3,0.1-0.4c0.1-0.1,0.2-0.2,0.3-0.2
						c1.9-0.4,3.9,0.1,5.2,1.5c2.2,2.2,2.2,5.8,0,8C16.3,104.7,16.2,104.7,16,104.7z"/>
				</g>
			</g>
			<g>
				<g>
					<path class="st1" d="M17.9,105.1l-2.2,0c-0.3,0-0.5-0.2-0.5-0.5l-0.2-2.2c0-0.1,0-0.3,0.1-0.4c0.1-0.1,0.2-0.2,0.4-0.2
						c0.1,0,0.3,0,0.4,0.1c0.1,0.1,0.2,0.2,0.2,0.4l0.2,1.7l1.7,0c0.3,0,0.5,0.2,0.5,0.5C18.4,104.8,18.2,105.1,17.9,105.1z
						 M17.9,104.5C17.9,104.5,17.9,104.5,17.9,104.5L17.9,104.5z"/>
				</g>
			</g>
		</g>
	</g>
	<g>
		<g>
			<g>
				<path class="st1" d="M21.2,110.6H3.6c-1,0-1.8-0.8-1.8-1.8v-18c0-1,0.8-1.8,1.8-1.8h17.5c1,0,1.8,0.8,1.8,1.8v18
					C23,109.7,22.1,110.6,21.2,110.6L21.2,110.6z M3.6,90.2c-0.3,0-0.6,0.3-0.6,0.6v18c0,0.3,0.3,0.6,0.6,0.6h17.5
					c0.3,0,0.6-0.3,0.6-0.6v-18c0-0.3-0.3-0.6-0.6-0.6H3.6L3.6,90.2z"/>
			</g>
		</g>
		<g>
			<g>
				<path class="st1" d="M16.7,87.7c-0.3,0-0.6-0.3-0.6-0.6v-2.5c0-0.3-0.3-0.6-0.6-0.6H9.2c-0.3,0-0.6,0.3-0.6,0.6v2.5
					c0,0.3-0.3,0.6-0.6,0.6s-0.6-0.3-0.6-0.6v-2.5c0-1,0.8-1.8,1.8-1.8h6.3c1,0,1.8,0.8,1.8,1.8v2.5C17.3,87.5,17.1,87.7,16.7,87.7
					L16.7,87.7z"/>
			</g>
		</g>
	</g>
</g>
<g>
	<g>
		<path class="st0" d="M12.7,272.3c-0.3,0-0.6-0.2-0.6-0.6v-8c0-0.3,0.2-0.6,0.6-0.6c0.3,0,0.6,0.2,0.6,0.6v8
			C13.2,272.1,13,272.3,12.7,272.3L12.7,272.3z"/>
	</g>
	<g>
		<path class="st0" d="M12.7,288.1c-6.1,0-11-4.9-11-11c0-4.7,3-8.9,7.4-10.4c0.3-0.1,0.6,0.1,0.7,0.3c0.1,0.3-0.1,0.6-0.3,0.7
			c-4,1.4-6.7,5.1-6.7,9.4c0,5.5,4.4,9.9,9.9,9.9c5.5,0,9.9-4.4,9.9-9.9c0-4.2-2.7-8-6.7-9.4c-0.3-0.1-0.4-0.4-0.3-0.7
			c0.1-0.3,0.4-0.4,0.7-0.3c4.4,1.5,7.4,5.7,7.4,10.4C23.7,283.1,18.7,288.1,12.7,288.1L12.7,288.1z"/>
	</g>
</g>
</svg>
