<?xml version="1.0" encoding="utf-8"?>
<!-- Generator: Adobe Illustrator 22.0.1, SVG Export Plug-In . SVG Version: 6.00 Build 0)  -->
<svg version="1.1" id="Capa_1" xmlns="http://www.w3.org/2000/svg" xmlns:xlink="http://www.w3.org/1999/xlink" x="0px" y="0px"
	 viewBox="0 0 39.6 39.6" style="enable-background:new 0 0 39.6 39.6;" xml:space="preserve">
<style type="text/css">
	.st0{fill:#808082;}
</style>
<g>
	<g>
		<path class="st0" d="M19.8,39.6C8.9,39.6,0,30.7,0,19.8C0,8.9,8.9,0,19.8,0c10.9,0,19.8,8.9,19.8,19.8
			C39.6,30.7,30.7,39.6,19.8,39.6L19.8,39.6z M19.8,0.9C9.4,0.9,0.9,9.4,0.9,19.8c0,10.4,8.5,18.9,18.9,18.9
			c10.4,0,18.9-8.5,18.9-18.9C38.8,9.4,30.3,0.9,19.8,0.9L19.8,0.9z"/>
	</g>
</g>
<g>
	<g>
		<g>
			<path class="st0" d="M15.1,25.3c-0.1,0-0.2,0-0.2-0.1c-0.1-0.1-0.1-0.2-0.1-0.3L15,22c0-0.1,0-0.2,0.1-0.2l8.8-8.8
				c0.1-0.1,0.1-0.1,0.2-0.1l0,0c0.1,0,0.2,0,0.2,0.1l2.8,2.8c0.1,0.1,0.1,0.1,0.1,0.2s0,0.2-0.1,0.2L18.3,25
				c-0.1,0.1-0.1,0.1-0.2,0.1L15.1,25.3C15.1,25.3,15.1,25.3,15.1,25.3L15.1,25.3z M15.6,22.2l-0.1,2.4l2.4-0.1l8.4-8.4l-2.3-2.3
				L15.6,22.2L15.6,22.2z"/>
		</g>
		<g>
			<path class="st0" d="M25.3,17.7c-0.1,0-0.2,0-0.2-0.1l-2.5-2.5c-0.1-0.1-0.1-0.3,0-0.5c0.1-0.1,0.3-0.1,0.5,0l2.5,2.5
				c0.1,0.1,0.1,0.3,0,0.5C25.4,17.6,25.4,17.7,25.3,17.7L25.3,17.7z"/>
		</g>
		<g>
			<path class="st0" d="M16.5,25.2C16.5,25.2,16.5,25.2,16.5,25.2c-0.2,0-0.4-0.2-0.3-0.4c0,0,0,0,0,0c0,0,0-0.1,0-0.1
				c0-0.2-0.1-0.5-0.2-0.6c-0.2-0.2-0.4-0.2-0.6-0.2l-0.1,0c-0.2,0-0.4-0.1-0.4-0.3c0-0.2,0.1-0.4,0.3-0.4c0.1,0,0.1,0,0.1,0
				c0.5,0,0.9,0.1,1.2,0.4c0.3,0.3,0.4,0.7,0.4,1.2c0,0.1,0,0.1,0,0.2C16.8,25.1,16.7,25.2,16.5,25.2L16.5,25.2z"/>
		</g>
	</g>
	<g>
		<path class="st0" d="M27.1,28.1H12.5c-0.2,0-0.3-0.1-0.3-0.3V13.2c0-0.2,0.1-0.3,0.3-0.3h7.2c0.2,0,0.3,0.1,0.3,0.3
			c0,0.2-0.1,0.3-0.3,0.3h-6.9v13.9h13.9v-6.9c0-0.2,0.1-0.3,0.3-0.3s0.3,0.1,0.3,0.3v7.2C27.4,27.9,27.3,28.1,27.1,28.1L27.1,28.1z
			"/>
	</g>
</g>
</svg>
