<?xml version="1.0" encoding="utf-8"?>
<!-- Generator: Adobe Illustrator 22.0.1, SVG Export Plug-In . SVG Version: 6.00 Build 0)  -->
<svg version="1.1" id="Capa_1" xmlns="http://www.w3.org/2000/svg" xmlns:xlink="http://www.w3.org/1999/xlink" x="0px" y="0px"
	 viewBox="0 0 28.2 24.9" style="enable-background:new 0 0 28.2 24.9;" xml:space="preserve">
<style type="text/css">
	.st0{fill:#9DC44C;}
</style>
<g>
	<g>
		<path class="st0" d="M9.3,11c-2.7,0-4.9-2.5-4.9-5.5c0-3,2.2-5.5,4.9-5.5c2.7,0,4.9,2.5,4.9,5.5C14.1,8.6,12,11,9.3,11L9.3,11z
			 M9.3,1.3c-2,0-3.6,1.9-3.6,4.3s1.6,4.3,3.6,4.3c2,0,3.6-1.9,3.6-4.3S11.3,1.3,9.3,1.3L9.3,1.3z"/>
	</g>
	<g>
		<path class="st0" d="M17.3,24.9H1c-0.3,0-0.6-0.3-0.6-0.6L0,19.1c-0.1-1.7,1.2-3.8,3-4.4c4-1.4,8.4-1.4,12.4,0
			c1.9,0.7,3.1,2.8,3,4.4L18,24.4C17.9,24.7,17.7,24.9,17.3,24.9L17.3,24.9z M1.6,23.7h15.1l0.3-4.7c0.1-1.1-0.8-2.6-2.1-3.1
			c-3.7-1.3-7.8-1.3-11.5,0c-1.3,0.5-2.2,2-2.1,3.1L1.6,23.7L1.6,23.7z"/>
	</g>
	<g>
		<path class="st0" d="M17.3,24.9H1c-0.3,0-0.6-0.3-0.6-0.6L0,19.1c-0.1-1.7,1.2-3.8,3-4.4c4-1.4,8.4-1.4,12.4,0
			c1.9,0.7,3.1,2.8,3,4.4L18,24.4C17.9,24.7,17.7,24.9,17.3,24.9L17.3,24.9z M1.6,23.7h15.1l0.3-4.7c0.1-1.1-0.8-2.6-2.1-3.1
			c-3.7-1.3-7.8-1.3-11.5,0c-1.3,0.5-2.2,2-2.1,3.1L1.6,23.7L1.6,23.7z"/>
	</g>
	<g>
		<path class="st0" d="M27.2,24.9h-6.5c-0.4,0-0.6-0.3-0.6-0.6c0-0.4,0.3-0.6,0.6-0.6h5.9l0.3-4c0.1-0.9-0.7-2.2-1.8-2.6
			c-1.5-0.5-3.1-0.8-4.7-0.8c-0.3,0-0.6-0.3-0.6-0.6c0-0.4,0.3-0.7,0.6-0.6c1.7,0,3.4,0.3,5.1,0.9c1.5,0.6,2.7,2.3,2.6,3.9l-0.3,4.5
			C27.8,24.7,27.5,24.9,27.2,24.9L27.2,24.9z"/>
	</g>
	<g>
		<path class="st0" d="M22.2,12.4c-2.2,0-3.9-2-3.9-4.4c0-2.5,1.8-4.4,3.9-4.4s3.9,2,3.9,4.4C26.1,10.4,24.4,12.4,22.2,12.4
			L22.2,12.4z M22.2,4.8c-1.5,0-2.7,1.4-2.7,3.2c0,1.8,1.2,3.2,2.7,3.2s2.7-1.4,2.7-3.2C24.9,6.2,23.7,4.8,22.2,4.8L22.2,4.8z"/>
	</g>
</g>
</svg>
