<?xml version="1.0" encoding="utf-8"?>
<!-- Generator: Adobe Illustrator 22.0.1, SVG Export Plug-In . SVG Version: 6.00 Build 0)  -->
<svg version="1.1" id="Capa_1" xmlns="http://www.w3.org/2000/svg" xmlns:xlink="http://www.w3.org/1999/xlink" x="0px" y="0px"
	 viewBox="0 0 39.6 39.6" style="enable-background:new 0 0 39.6 39.6;" xml:space="preserve">
<style type="text/css">
	.st0{fill:#808082;}
</style>
<g>
	<g>
		<g>
			<path class="st0" d="M19.9,26.7c-4.4,0-8.3-2.7-9.6-6.7c0-0.1,0-0.2,0-0.3c1.3-4,5.2-6.7,9.6-6.7c4.4,0,8.3,2.7,9.6,6.7
				c0,0.1,0,0.2,0,0.3C28.1,23.9,24.3,26.7,19.9,26.7L19.9,26.7z M11.1,19.8c1.2,3.6,4.7,6,8.7,6c4,0,7.5-2.4,8.7-6
				c-1.2-3.6-4.7-6-8.7-6C15.9,13.8,12.4,16.2,11.1,19.8L11.1,19.8z"/>
		</g>
		<g>
			<path class="st0" d="M19.9,24.1c-2.4,0-4.3-1.9-4.3-4.3c0-0.2,0.2-0.4,0.4-0.4c0.2,0,0.4,0.2,0.4,0.4c0,1.9,1.5,3.4,3.4,3.4
				c1.9,0,3.4-1.5,3.4-3.4c0-1.9-1.5-3.4-3.4-3.4c-0.2,0-0.4-0.2-0.4-0.4s0.2-0.4,0.4-0.4c2.4,0,4.3,1.9,4.3,4.3
				C24.1,22.1,22.2,24.1,19.9,24.1L19.9,24.1z"/>
		</g>
	</g>
	<g>
		<g>
			<path class="st0" d="M19.9,40C8.9,40,0,31.2,0,20.2C0,9.3,8.9,0.4,19.9,0.4c10.9,0,19.8,8.9,19.8,19.8C39.7,31.2,30.8,40,19.9,40
				L19.9,40z M19.9,1.3C9.4,1.3,0.9,9.8,0.9,20.2c0,10.4,8.5,18.9,18.9,18.9c10.4,0,18.9-8.5,18.9-18.9C38.8,9.8,30.3,1.3,19.9,1.3
				L19.9,1.3z"/>
		</g>
	</g>
</g>
</svg>
