<?xml version="1.0" encoding="utf-8"?>
<!-- Generator: Adobe Illustrator 22.0.1, SVG Export Plug-In . SVG Version: 6.00 Build 0)  -->
<svg version="1.1" id="Capa_1" xmlns="http://www.w3.org/2000/svg" xmlns:xlink="http://www.w3.org/1999/xlink" x="0px" y="0px"
	 viewBox="0 0 39.6 39.8" style="enable-background:new 0 0 39.6 39.8;" xml:space="preserve">
<style type="text/css">
	.st0{fill:#9DC44C;}
	.st1{fill:#FFFFFF;}
</style>
<g>
	<g>
		<g>
			<path class="st0" d="M19.8,39.6C8.9,39.6,0,30.7,0,19.8C0,8.9,8.9,0,19.8,0c10.9,0,19.8,8.9,19.8,19.8
				C39.6,30.7,30.7,39.6,19.8,39.6L19.8,39.6z M19.8,0.9C9.4,0.9,0.9,9.4,0.9,19.8c0,10.4,8.5,18.9,18.9,18.9
				c10.4,0,18.9-8.5,18.9-18.9C38.8,9.4,30.3,0.9,19.8,0.9L19.8,0.9z"/>
		</g>
	</g>
	<circle class="st0" cx="19.8" cy="20" r="19.8"/>
	<g>
		<path class="st1" d="M16.1,29.1c-0.1,0-0.2-0.1-0.3-0.1l-6.1-6.4c-0.2-0.2-0.2-0.5,0-0.7c0.2-0.2,0.5-0.2,0.7,0l5.7,6l13.1-16
			c0.2-0.2,0.5-0.2,0.6-0.1c0.2,0.2,0.2,0.5,0.1,0.6L16.5,29C16.4,29.1,16.3,29.1,16.1,29.1C16.1,29.1,16.1,29.1,16.1,29.1
			L16.1,29.1z"/>
	</g>
</g>
</svg>
