<?xml version="1.0" encoding="utf-8"?>
<!-- Generator: Adobe Illustrator 22.0.1, SVG Export Plug-In . SVG Version: 6.00 Build 0)  -->
<svg version="1.1" id="Capa_1" xmlns="http://www.w3.org/2000/svg" xmlns:xlink="http://www.w3.org/1999/xlink" x="0px" y="0px"
	 viewBox="0 0 18.2 17.4" style="enable-background:new 0 0 18.2 17.4;" xml:space="preserve">
<style type="text/css">
	.st0{fill:#424143;}
</style>
<g>
	<g>
		<g>
			<g>
				<path class="st0" d="M0.4,17.4c-0.1,0-0.2,0-0.3-0.1C0,17.2,0,17.1,0,17l0.2-4.2c0-0.1,0-0.2,0.1-0.3L12.8,0.1
					C12.9,0,13,0,13.1,0l0,0c0.1,0,0.2,0,0.3,0.1L17.3,4c0.1,0.1,0.1,0.2,0.1,0.3c0,0.1,0,0.2-0.1,0.3L4.9,17
					c-0.1,0.1-0.2,0.1-0.3,0.1L0.4,17.4C0.4,17.4,0.4,17.4,0.4,17.4L0.4,17.4z M1.1,13l-0.2,3.6l3.5-0.2l12-12L13.1,1L1.1,13L1.1,13
					z"/>
			</g>
			<g>
				<path class="st0" d="M14.8,6.6c-0.1,0-0.2,0-0.3-0.1L11,2.9c-0.2-0.2-0.2-0.4,0-0.6c0.2-0.2,0.4-0.2,0.6,0l3.5,3.5
					c0.2,0.2,0.2,0.4,0,0.6C15,6.5,14.9,6.6,14.8,6.6L14.8,6.6z"/>
			</g>
			<g>
				<path class="st0" d="M3.3,14.6c-0.1,0-0.2,0-0.3-0.1c-0.2-0.2-0.2-0.4,0-0.6l9.7-9.7c0.2-0.2,0.4-0.2,0.6,0s0.2,0.4,0,0.6
					l-9.7,9.7C3.5,14.5,3.4,14.6,3.3,14.6L3.3,14.6z"/>
			</g>
		</g>
		<g>
			<path class="st0" d="M17.8,17.3H8.7c-0.2,0-0.4-0.2-0.4-0.4c0-0.2,0.2-0.4,0.4-0.4h9.2c0.2,0,0.4,0.2,0.4,0.4
				C18.2,17.1,18,17.3,17.8,17.3L17.8,17.3z"/>
		</g>
	</g>
</g>
</svg>
