<?xml version="1.0" encoding="utf-8"?>
<!-- Generator: Adobe Illustrator 22.0.1, SVG Export Plug-In . SVG Version: 6.00 Build 0)  -->
<svg version="1.1" id="Capa_1" xmlns="http://www.w3.org/2000/svg" xmlns:xlink="http://www.w3.org/1999/xlink" x="0px" y="0px"
	 viewBox="0 0 138.3 66.3" style="enable-background:new 0 0 138.3 66.3;" xml:space="preserve">
<style type="text/css">
	.st0{fill:#A5A7A9;}
	.st1{fill:url(#SVGID_1_);}
	.st2{fill:url(#SVGID_2_);}
	.st3{fill:url(#SVGID_3_);}
</style>
<g>
	<path class="st0" d="M4.6,64.6c0-0.3-0.1-0.6-0.4-0.8c-0.3-0.2-0.7-0.4-1.2-0.5s-1-0.3-1.3-0.4c-0.3-0.2-0.5-0.3-0.7-0.6
		c-0.1-0.2-0.2-0.5-0.2-0.8c0-0.5,0.2-0.9,0.6-1.2C1.8,60,2.3,59.9,3,59.9c0.7,0,1.2,0.2,1.7,0.5s0.6,0.8,0.6,1.3H4.6
		c0-0.4-0.2-0.7-0.5-0.9S3.4,60.5,3,60.5c-0.5,0-0.8,0.1-1.1,0.3c-0.3,0.2-0.4,0.5-0.4,0.8c0,0.3,0.1,0.5,0.3,0.7
		c0.2,0.2,0.6,0.3,1.2,0.5c0.6,0.1,1.1,0.3,1.4,0.5s0.5,0.4,0.7,0.6c0.1,0.2,0.2,0.5,0.2,0.8c0,0.5-0.2,0.9-0.6,1.3
		c-0.4,0.3-1,0.5-1.7,0.5c-0.7,0-1.3-0.2-1.8-0.5c-0.4-0.3-0.7-0.8-0.7-1.3h0.7c0,0.4,0.2,0.7,0.5,0.9c0.3,0.2,0.7,0.3,1.2,0.3
		c0.5,0,0.9-0.1,1.2-0.3C4.5,65.2,4.6,64.9,4.6,64.6z"/>
	<path class="st0" d="M12.2,60l0,1c0.2-0.4,0.5-0.7,0.9-0.8c0.3-0.2,0.7-0.3,1.1-0.3c1,0,1.6,0.4,1.9,1.2c0.2-0.4,0.5-0.7,0.9-0.9
		c0.4-0.2,0.8-0.3,1.2-0.3c1.3,0,2,0.7,2,2.2v4.1h-0.7v-4.1c0-0.6-0.1-1-0.4-1.2c-0.2-0.3-0.6-0.4-1.1-0.4c-0.5,0-0.9,0.2-1.2,0.5
		s-0.5,0.7-0.6,1.1v4.1h-0.7v-4.1c0-0.5-0.1-0.9-0.4-1.2s-0.6-0.4-1.1-0.4c-0.4,0-0.8,0.1-1.1,0.4c-0.3,0.2-0.5,0.6-0.7,1.1v4.3
		h-0.7V60H12.2z"/>
	<path class="st0" d="M30.5,66.2c-0.1-0.2-0.1-0.5-0.1-0.9c-0.2,0.3-0.5,0.6-0.9,0.7s-0.8,0.3-1.2,0.3c-0.6,0-1.1-0.2-1.4-0.5
		c-0.4-0.3-0.6-0.8-0.6-1.3c0-0.6,0.3-1.1,0.8-1.4c0.5-0.4,1.2-0.5,2.1-0.5h1.2v-0.7c0-0.4-0.1-0.8-0.4-1s-0.7-0.4-1.2-0.4
		c-0.5,0-0.9,0.1-1.2,0.4c-0.3,0.2-0.5,0.5-0.5,0.9l-0.7,0c0-0.5,0.2-0.9,0.7-1.3c0.5-0.4,1-0.5,1.7-0.5c0.7,0,1.2,0.2,1.6,0.5
		s0.6,0.8,0.6,1.4v2.9c0,0.6,0.1,1,0.2,1.3v0.1H30.5z M28.4,65.7c0.5,0,0.9-0.1,1.2-0.3s0.6-0.5,0.8-0.9v-1.4h-1.2
		c-0.7,0-1.2,0.1-1.6,0.4s-0.6,0.6-0.6,1c0,0.3,0.1,0.6,0.4,0.9C27.6,65.6,28,65.7,28.4,65.7z"/>
	<path class="st0" d="M40.5,60.6c-0.1,0-0.3,0-0.5,0c-0.4,0-0.8,0.1-1.1,0.4s-0.5,0.6-0.6,1v4.3h-0.7V60h0.7l0,1
		c0.4-0.7,0.9-1.1,1.7-1.1c0.2,0,0.3,0,0.5,0.1L40.5,60.6z"/>
	<path class="st0" d="M47.6,58.4V60h1.3v0.6h-1.3v4.1c0,0.3,0.1,0.6,0.2,0.8c0.1,0.2,0.3,0.3,0.6,0.3c0.1,0,0.3,0,0.6-0.1l0,0.6
		c-0.2,0.1-0.4,0.1-0.7,0.1c-0.5,0-0.8-0.1-1-0.4s-0.3-0.7-0.3-1.2v-4.1h-1.1V60h1.1v-1.6H47.6z"/>
	<path class="st0" d="M62.5,61.9c0-0.3,0.1-0.5,0.3-0.7c0.2-0.2,0.5-0.3,0.8-0.3c0.3,0,0.6,0.1,0.8,0.3c0.2,0.2,0.3,0.4,0.3,0.7v0.2
		c0,0.3-0.1,0.6-0.3,0.7c-0.2,0.2-0.5,0.3-0.8,0.3c-0.3,0-0.6-0.1-0.8-0.3c-0.2-0.2-0.3-0.4-0.3-0.7V61.9z"/>
	<path class="st0" d="M82.3,64.6c0-0.3-0.1-0.6-0.4-0.8c-0.3-0.2-0.7-0.4-1.2-0.5s-1-0.3-1.3-0.4c-0.3-0.2-0.5-0.3-0.7-0.6
		c-0.1-0.2-0.2-0.5-0.2-0.8c0-0.5,0.2-0.9,0.6-1.2c0.4-0.3,0.9-0.5,1.6-0.5c0.7,0,1.2,0.2,1.7,0.5s0.6,0.8,0.6,1.3h-0.7
		c0-0.4-0.2-0.7-0.5-0.9s-0.7-0.4-1.1-0.4c-0.5,0-0.8,0.1-1.1,0.3c-0.3,0.2-0.4,0.5-0.4,0.8c0,0.3,0.1,0.5,0.3,0.7
		c0.2,0.2,0.6,0.3,1.2,0.5c0.6,0.1,1.1,0.3,1.4,0.5s0.5,0.4,0.7,0.6c0.1,0.2,0.2,0.5,0.2,0.8c0,0.5-0.2,0.9-0.6,1.3
		c-0.4,0.3-1,0.5-1.7,0.5c-0.7,0-1.3-0.2-1.8-0.5c-0.4-0.3-0.7-0.8-0.7-1.3h0.7c0,0.4,0.2,0.7,0.5,0.9c0.3,0.2,0.7,0.3,1.2,0.3
		c0.5,0,0.9-0.1,1.2-0.3C82.1,65.2,82.3,64.9,82.3,64.6z"/>
	<path class="st0" d="M91.6,66.3c-0.5,0-1-0.1-1.4-0.4s-0.8-0.6-1-1.1c-0.2-0.5-0.4-1-0.4-1.6V63c0-0.6,0.1-1.1,0.3-1.6
		c0.2-0.5,0.6-0.9,1-1.1c0.4-0.3,0.9-0.4,1.3-0.4c0.8,0,1.3,0.3,1.8,0.8s0.7,1.2,0.7,2.1v0.4h-4.4v0.1c0,0.7,0.2,1.3,0.6,1.8
		c0.4,0.5,0.9,0.7,1.5,0.7c0.4,0,0.7-0.1,1-0.2c0.3-0.1,0.5-0.3,0.8-0.6l0.4,0.3C93.3,66,92.6,66.3,91.6,66.3z M91.5,60.5
		c-0.5,0-1,0.2-1.3,0.6c-0.4,0.4-0.6,0.9-0.6,1.5h3.7v-0.1c0-0.6-0.2-1.1-0.5-1.5C92.4,60.7,92,60.5,91.5,60.5z"/>
	<path class="st0" d="M102.3,65.7c0.5,0,0.9-0.1,1.2-0.4c0.3-0.3,0.5-0.6,0.5-1h0.7c0,0.4-0.1,0.7-0.4,1c-0.2,0.3-0.5,0.6-0.9,0.7
		c-0.4,0.2-0.7,0.3-1.2,0.3c-0.8,0-1.5-0.3-1.9-0.8s-0.7-1.3-0.7-2.3V63c0-0.6,0.1-1.2,0.3-1.6c0.2-0.5,0.5-0.8,0.9-1.1
		s0.9-0.4,1.4-0.4c0.7,0,1.2,0.2,1.7,0.6s0.7,0.9,0.7,1.6H104c0-0.5-0.2-0.9-0.5-1.2c-0.3-0.3-0.7-0.4-1.2-0.4
		c-0.6,0-1.1,0.2-1.4,0.7s-0.5,1.1-0.5,1.9v0.2c0,0.8,0.2,1.4,0.5,1.8S101.6,65.7,102.3,65.7z"/>
	<path class="st0" d="M114.7,65.4c-0.4,0.6-1.1,0.9-2,0.9c-0.7,0-1.2-0.2-1.5-0.6c-0.3-0.4-0.5-1-0.5-1.7v-4h0.7v3.9
		c0,1.2,0.5,1.8,1.4,1.8c1,0,1.6-0.4,1.9-1.2V60h0.7v6.2h-0.7L114.7,65.4z"/>
	<path class="st0" d="M124.7,60.6c-0.1,0-0.3,0-0.5,0c-0.4,0-0.8,0.1-1.1,0.4s-0.5,0.6-0.6,1v4.3h-0.7V60h0.7l0,1
		c0.4-0.7,0.9-1.1,1.7-1.1c0.2,0,0.3,0,0.5,0.1L124.7,60.6z"/>
	<path class="st0" d="M132.8,66.3c-0.5,0-1-0.1-1.4-0.4s-0.8-0.6-1-1.1c-0.2-0.5-0.4-1-0.4-1.6V63c0-0.6,0.1-1.1,0.3-1.6
		c0.2-0.5,0.6-0.9,1-1.1c0.4-0.3,0.9-0.4,1.3-0.4c0.8,0,1.3,0.3,1.8,0.8s0.7,1.2,0.7,2.1v0.4h-4.4v0.1c0,0.7,0.2,1.3,0.6,1.8
		c0.4,0.5,0.9,0.7,1.5,0.7c0.4,0,0.7-0.1,1-0.2c0.3-0.1,0.5-0.3,0.8-0.6l0.4,0.3C134.5,66,133.7,66.3,132.8,66.3z M132.6,60.5
		c-0.5,0-1,0.2-1.3,0.6c-0.4,0.4-0.6,0.9-0.6,1.5h3.7v-0.1c0-0.6-0.2-1.1-0.5-1.5C133.6,60.7,133.2,60.5,132.6,60.5z"/>
</g>
<rect x="43.1" y="10.3" class="st0" width="10.7" height="39.9"/>
<rect x="43.1" class="st0" width="10.7" height="7.1"/>
<path class="st0" d="M72.4,10.3l0.3,4.6c2.9-3.6,6.7-5.4,11.5-5.4c4.2,0,7.4,1.2,9.4,3.7c2.1,2.5,3.1,6.2,3.2,11.1v25.8H86.2V24.7
	c0-2.3-0.5-3.9-1.5-4.9c-1-1-2.6-1.5-4.9-1.5c-3,0-5.3,1.3-6.8,3.8v28.2H62.4V10.3H72.4z"/>
<path class="st0" d="M121.5,42.3c2,0,3.6-0.5,4.8-1.6c1.2-1.1,1.9-2.5,1.9-4.3h10c0,2.7-0.8,5.2-2.2,7.4c-1.5,2.3-3.4,4-6,5.2
	c-2.5,1.2-5.3,1.9-8.4,1.9c-5.7,0-10.2-1.8-13.5-5.4c-3.3-3.6-4.9-8.6-4.9-15v-0.7c0-6.2,1.6-11.1,4.9-14.7
	c3.3-3.7,7.8-5.5,13.5-5.5c5,0,9,1.4,12,4.3c3,2.8,4.5,6.6,4.6,11.3h-10c0-2.1-0.7-3.8-1.9-5.1c-1.2-1.3-2.9-1.9-4.9-1.9
	c-2.5,0-4.4,0.9-5.6,2.7c-1.3,1.8-1.9,4.8-1.9,8.8v1.1c0,4.1,0.6,7.1,1.9,8.9C117.1,41.4,119,42.3,121.5,42.3z"/>
<linearGradient id="SVGID_1_" gradientUnits="userSpaceOnUse" x1="1.9399" y1="14.8824" x2="23.7697" y2="14.8824">
	<stop  offset="0" style="stop-color:#CC3078"/>
	<stop  offset="1" style="stop-color:#D25A31"/>
</linearGradient>
<polygon class="st1" points="23.8,10.2 1.9,10.2 1.9,19.5 16.3,19.5 "/>
<linearGradient id="SVGID_2_" gradientUnits="userSpaceOnUse" x1="12.0753" y1="45.5232" x2="34.7695" y2="45.5232">
	<stop  offset="0" style="stop-color:#CC3078"/>
	<stop  offset="1" style="stop-color:#D25A31"/>
</linearGradient>
<polygon class="st2" points="12.1,50.2 34.8,50.2 34.8,40.8 19.6,40.8 "/>
<linearGradient id="SVGID_3_" gradientUnits="userSpaceOnUse" x1="0" y1="30.212" x2="35.1538" y2="30.212">
	<stop  offset="0" style="stop-color:#CC3078"/>
	<stop  offset="1" style="stop-color:#D25A31"/>
</linearGradient>
<polygon class="st3" points="0,43.5 0,50.2 9,50.2 35.2,17.8 35.2,10.2 26.9,10.2 "/>
</svg>
